<?xml version="1.0" standalone="no"?>
<!DOCTYPE svg PUBLIC "-//W3C//DTD SVG 20010904//EN"
 "http://www.w3.org/TR/2001/REC-SVG-20010904/DTD/svg10.dtd">
<svg version="1.0" xmlns="http://www.w3.org/2000/svg"
 width="1078.000000pt" height="1078.000000pt" viewBox="0 0 1078.000000 1078.000000"
 preserveAspectRatio="xMidYMid meet">
<metadata>
Created by potrace 1.14, written by Peter Selinger 2001-2017
</metadata>
<g transform="translate(0.000000,1078.000000) scale(0.100000,-0.100000)"
fill="#000000" stroke="none">
<path d="M5843 10723 c3 -5 -131 -8 -296 -8 -320 0 -455 -13 -595 -56 -34 -11
-91 -26 -127 -34 -36 -9 -76 -20 -90 -25 -32 -12 -241 -40 -315 -42 -54 -2
-121 -33 -174 -80 -11 -10 -40 -25 -65 -35 -25 -9 -106 -54 -180 -100 -74 -46
-139 -83 -144 -83 -5 0 -19 -8 -32 -17 -12 -10 -33 -25 -45 -33 -120 -81 -286
-232 -383 -347 -59 -70 -63 -73 -96 -67 -34 7 -34 7 -28 -25 8 -39 -3 -68 -43
-106 -138 -134 -301 -358 -395 -545 -32 -63 -71 -133 -85 -155 -15 -22 -36
-60 -48 -85 -18 -39 -20 -42 -24 -20 -3 24 -5 23 -35 -19 -34 -45 -66 -122
-85 -200 -11 -48 -54 -166 -69 -191 -73 -123 -107 -249 -93 -341 6 -39 9 -41
35 -35 24 5 33 -1 63 -38 32 -39 35 -45 23 -69 -6 -14 -19 -25 -27 -25 -36 1
-70 -21 -70 -47 0 -14 -10 -42 -23 -63 -48 -77 -94 -179 -105 -232 -42 -200
-53 -359 -33 -474 6 -34 17 -109 26 -168 9 -59 22 -123 30 -142 13 -31 27
-152 42 -357 4 -51 2 -79 -6 -83 -6 -4 -11 -18 -11 -32 0 -29 22 -32 48 -6 28
28 70 52 90 52 27 0 86 26 102 44 7 9 17 16 22 16 19 0 78 32 78 42 0 13 47
58 61 58 5 0 14 -12 19 -26 9 -22 13 -24 25 -14 13 11 15 6 15 -32 0 -24 6
-52 13 -62 12 -16 15 -16 53 6 56 32 79 51 87 68 4 8 18 33 32 55 13 22 22 48
19 58 -3 9 -1 17 5 17 13 0 23 33 27 88 1 27 12 55 28 76 23 30 23 34 9 49
-15 15 -15 17 0 23 9 3 17 12 17 20 0 8 6 14 14 14 7 0 16 9 19 21 3 11 15 23
26 26 12 3 21 9 21 14 0 5 14 9 30 9 30 0 41 14 18 23 -10 3 -10 9 0 26 7 12
10 30 7 40 -3 10 1 24 10 31 8 7 12 16 9 21 -9 16 14 10 32 -8 17 -17 17 -17
12 4 -5 19 -3 21 11 13 13 -6 23 -42 40 -146 12 -76 36 -180 52 -231 17 -51
27 -98 23 -105 -4 -6 -3 -8 2 -5 5 3 27 -30 49 -74 41 -83 105 -167 159 -207
17 -13 30 -28 28 -34 -2 -6 4 -8 14 -4 21 8 -31 -55 -60 -71 -11 -7 -29 -10
-40 -6 -14 4 -16 2 -10 -8 13 -20 13 -69 1 -69 -6 0 -7 -3 -4 -7 13 -12 -15
-33 -44 -33 -15 0 -32 -6 -36 -13 -16 -26 -58 -47 -95 -47 -33 0 -40 -4 -49
-27 -28 -69 -62 -132 -74 -137 -7 -2 -21 2 -32 9 -10 8 -13 14 -6 15 7 0 20
17 28 37 9 21 21 41 28 45 9 6 8 10 -3 18 -20 13 -33 13 -24 -1 5 -9 -1 -10
-20 -5 -24 6 -26 4 -28 -26 -1 -18 -1 -43 0 -56 0 -12 -3 -20 -9 -17 -10 7
-12 -15 -3 -38 4 -13 11 -13 36 -5 50 18 56 -6 7 -31 -44 -23 -58 -18 -59 20
0 9 -7 34 -16 55 -9 22 -18 50 -20 64 -17 130 -24 163 -41 176 -27 20 -37 12
-46 -37 -5 -24 -19 -58 -32 -74 -12 -17 -26 -46 -29 -65 -12 -56 -17 -70 -25
-70 -12 0 -91 -80 -91 -91 0 -16 -44 -28 -58 -16 -21 17 -36 50 -34 77 1 14
-3 32 -8 40 -8 12 -13 13 -30 2 -17 -10 -20 -10 -20 5 0 13 -9 18 -33 20 -76
4 -133 -41 -91 -72 17 -12 15 -15 -23 -30 -38 -15 -92 -76 -86 -97 4 -11 -26
-30 -60 -37 -29 -6 -32 -10 -29 -39 4 -38 -18 -44 -41 -12 -13 19 -16 19 -29
6 -11 -10 -19 -11 -26 -4 -11 11 -52 2 -52 -13 0 -5 14 -9 31 -9 22 0 32 -5
36 -20 5 -19 25 -26 97 -32 30 -3 50 -28 22 -28 -9 0 -16 -4 -16 -10 0 -5 5
-10 11 -10 6 0 17 -6 24 -14 12 -12 12 -15 -1 -20 -9 -3 -24 -6 -34 -6 -11 0
-24 -9 -30 -20 -13 -24 -26 -26 -34 -4 -6 16 6 47 17 45 28 -4 28 2 2 24 -16
13 -35 29 -42 35 -16 13 -56 13 -86 -1 -19 -9 -31 -7 -57 6 -18 10 -35 13 -39
8 -3 -5 -14 -12 -23 -16 -22 -8 -24 -27 -4 -27 21 0 30 -20 16 -33 -9 -9 -15
-7 -26 8 -8 11 -25 21 -37 21 -12 1 -34 4 -48 7 -21 4 -29 0 -38 -19 -6 -15
-7 -24 -1 -24 6 0 10 5 10 12 0 6 2 9 5 6 9 -9 -6 -38 -20 -38 -7 0 -19 -8
-26 -17 -8 -9 -9 -14 -3 -10 6 3 21 -3 34 -15 13 -13 25 -17 29 -10 14 23 81
13 81 -13 0 -7 5 -15 12 -17 7 -3 9 -14 5 -30 -7 -25 -9 -26 -62 -22 l-55 5 0
-31 c0 -42 -35 -76 -87 -84 -26 -4 -52 -16 -67 -31 l-26 -26 55 4 c32 3 61 11
70 21 20 20 55 21 55 2 0 -8 -12 -17 -26 -20 -15 -4 -43 -23 -63 -42 -31 -31
-33 -35 -14 -32 12 2 22 0 23 -4 1 -24 -1 -28 -15 -28 -32 0 -65 -23 -65 -47
0 -12 5 -23 10 -23 6 0 10 -6 10 -14 0 -24 15 -26 74 -11 31 8 61 15 66 15 16
0 0 -28 -19 -33 -10 -2 -25 -19 -34 -38 -8 -19 -25 -44 -36 -56 -14 -15 -17
-23 -8 -27 8 -3 7 -8 -6 -16 -22 -14 -21 -39 3 -70 11 -14 20 -30 20 -36 0 -6
7 -17 15 -24 7 -6 27 -35 44 -63 16 -29 42 -67 58 -86 52 -61 78 -96 108 -139
16 -24 38 -48 49 -54 27 -15 46 -34 46 -47 0 -6 6 -11 13 -11 7 0 17 -15 22
-32 8 -25 35 -52 109 -108 54 -42 120 -84 145 -94 25 -10 58 -24 73 -32 14 -8
35 -14 46 -14 12 0 24 -4 27 -10 3 -5 14 -10 24 -10 21 0 61 -40 61 -62 0 -24
57 -96 89 -113 18 -9 70 -18 123 -21 51 -3 123 -12 160 -20 37 -8 124 -18 193
-23 69 -5 128 -11 131 -14 4 -3 -1 -51 -10 -106 -12 -74 -13 -113 -6 -148 5
-27 14 -106 20 -178 6 -71 14 -160 17 -197 6 -67 -18 -201 -38 -214 -15 -9
-10 -20 26 -57 19 -20 35 -45 35 -57 0 -11 5 -20 10 -20 6 0 10 -7 10 -15 0
-8 9 -15 20 -15 24 0 41 -29 34 -57 -4 -15 4 -31 25 -54 20 -20 31 -42 31 -60
0 -33 16 -38 36 -11 13 16 13 16 14 0 0 -12 8 -18 25 -18 21 0 25 -5 25 -31 0
-27 3 -31 22 -26 14 4 29 0 41 -11 18 -16 20 -16 34 3 15 19 15 19 9 -7 -7
-31 6 -44 24 -23 17 20 33 19 47 -4 10 -16 20 -18 52 -14 32 4 42 2 47 -11 7
-19 21 -21 38 -4 14 15 16 58 2 58 -5 0 -7 3 -4 6 4 3 15 1 26 -5 14 -8 18
-17 14 -37 -3 -19 -1 -25 7 -20 6 4 11 14 11 22 0 12 8 13 38 8 20 -3 41 -10
47 -15 16 -16 35 -10 35 11 0 30 38 26 50 -5 11 -29 17 -31 41 -9 11 10 23 13
31 8 7 -5 21 -7 32 -5 10 1 22 -3 26 -9 4 -6 23 -12 41 -13 30 -2 34 1 35 23
2 40 3 40 28 15 21 -21 29 -23 51 -15 38 15 75 12 81 -5 5 -12 9 -13 21 -4 26
22 75 21 90 -1 18 -25 60 -27 65 -3 3 15 6 14 27 -7 13 -14 29 -38 35 -53 11
-25 14 -26 26 -13 13 17 40 22 40 8 0 -4 15 -23 34 -42 22 -23 32 -41 29 -54
-3 -15 0 -12 11 7 11 21 13 34 6 47 -15 27 -12 50 5 50 10 0 15 7 13 17 -2 13
3 17 20 16 12 -2 22 2 22 7 0 27 32 5 51 -35 22 -47 39 -51 39 -9 0 13 5 24
11 24 7 0 8 -16 3 -45 -5 -33 -2 -51 10 -70 9 -13 16 -33 16 -45 0 -11 4 -20
9 -20 12 0 1 83 -11 91 -5 3 -1 9 10 11 16 4 23 -1 32 -23 15 -35 30 -29 30
12 0 47 34 30 42 -20 5 -35 34 -51 51 -28 7 10 19 17 26 15 8 -2 18 8 22 22 6
19 7 15 4 -15 -15 -138 -3 -240 18 -153 15 62 39 108 58 108 10 0 19 -8 22
-18 3 -13 6 -11 15 11 13 31 32 28 32 -4 0 -11 4 -17 10 -14 5 3 20 -1 33 -10
27 -17 38 -10 52 34 6 18 9 20 16 10 5 -8 9 -26 9 -41 0 -33 15 -36 30 -8 6
11 15 20 20 20 16 0 11 -62 -6 -81 -18 -19 -45 -178 -42 -247 1 -23 -2 -45 -5
-49 -4 -3 -7 13 -7 38 0 42 0 43 -16 21 -23 -34 -34 -27 -35 26 -1 44 -16 113
-18 83 -1 -8 -4 -12 -7 -8 -3 3 -27 -1 -52 -9 -56 -17 -52 -16 -52 -4 0 6 11
10 23 10 45 0 56 26 50 120 -5 70 -8 80 -15 58 -6 -16 -14 -28 -19 -28 -6 0
-8 4 -5 8 2 4 1 14 -5 22 -6 11 -9 8 -9 -13 0 -73 -44 -167 -78 -167 -12 0
-22 24 -22 56 0 31 -16 31 -24 -1 -6 -24 -38 -35 -50 -17 -5 9 16 77 27 88 11
11 8 26 -3 19 -5 -3 -10 1 -10 10 0 10 -7 15 -17 13 -14 -3 -19 -17 -23 -70
-3 -36 -8 -69 -12 -73 -11 -11 -28 4 -21 20 4 11 -3 15 -27 15 -26 0 -30 -3
-26 -18 4 -12 -1 -26 -14 -37 -11 -10 -20 -31 -20 -47 0 -36 -27 -38 -40 -3
-11 28 -40 34 -40 8 0 -15 -2 -15 -17 0 -15 13 -21 13 -35 3 -19 -14 -25 -46
-8 -46 14 0 13 -67 -1 -76 -6 -3 -16 -1 -22 5 -17 17 -27 13 -27 -8 0 -11 -7
-26 -15 -35 -8 -8 -15 -26 -15 -40 0 -37 -21 -77 -39 -74 -9 2 -23 17 -31 34
-8 17 -31 40 -50 50 -19 11 -37 29 -40 42 -7 32 -25 24 -24 -10 2 -37 -11 -35
-57 7 -37 33 -53 39 -91 36 -9 -1 -22 8 -28 19 -9 16 -18 20 -35 16 -14 -4
-27 0 -35 10 -7 8 -37 26 -66 39 -29 13 -55 29 -59 34 -3 6 -13 11 -21 11 -8
0 -31 11 -52 25 -20 13 -57 27 -82 31 -25 4 -55 15 -67 26 -16 15 -29 18 -52
13 -42 -9 -53 0 -39 31 18 38 -6 55 -26 18 -14 -27 -15 -27 -16 -6 0 25 -15
30 -24 7 -9 -24 -36 -18 -36 8 0 15 -3 18 -9 9 -6 -10 -10 -10 -21 3 -10 12
-10 15 1 15 9 0 10 3 2 11 -8 8 -17 7 -32 -3 -18 -11 -23 -11 -30 0 -5 9 -19
11 -42 7 -26 -5 -41 -2 -61 14 -30 24 -54 27 -61 9 -2 -7 -9 12 -16 42 -11 49
-10 56 5 65 9 6 28 22 42 38 14 15 31 27 39 27 17 0 17 17 1 23 -10 4 -10 6 0
6 17 1 15 21 -3 21 -8 0 -28 -13 -43 -30 -25 -26 -69 -50 -92 -50 -5 0 -11 8
-13 18 -4 16 -5 16 -6 0 0 -10 -8 -18 -17 -18 -9 0 -28 -13 -42 -28 -15 -16
-34 -31 -42 -34 -12 -4 -13 -7 -2 -20 9 -11 10 -18 2 -23 -21 -13 -9 -33 25
-39 19 -4 39 -15 44 -25 8 -14 19 -17 55 -14 40 4 46 2 46 -15 0 -11 -7 -22
-15 -26 -24 -9 -18 -19 23 -43 34 -19 40 -19 57 -6 11 8 32 13 47 10 19 -2 28
2 31 15 7 26 27 22 78 -12 24 -16 55 -30 68 -30 30 0 179 -49 187 -61 3 -5 23
-9 44 -9 36 0 110 -33 118 -52 2 -4 10 -8 19 -8 17 0 56 -27 103 -70 18 -16
39 -30 46 -30 8 0 33 -18 55 -40 22 -22 45 -40 50 -40 5 0 9 -4 9 -10 0 -5 14
-25 30 -43 17 -19 30 -39 30 -45 0 -5 6 -15 14 -21 8 -7 25 -35 39 -64 23 -49
31 -79 41 -167 4 -36 22 -90 30 -90 3 0 18 12 33 26 27 26 30 26 113 19 110
-11 152 -11 340 -2 190 8 315 29 400 68 36 16 94 36 130 45 36 8 81 21 100 28
19 8 64 22 100 31 36 10 76 21 90 26 23 8 88 20 193 36 35 5 117 -20 117 -36
0 -3 24 -35 53 -71 28 -36 60 -85 71 -110 10 -25 25 -59 32 -77 8 -17 14 -38
14 -46 0 -8 7 -17 15 -21 10 -3 15 -19 15 -45 0 -25 5 -41 15 -45 8 -3 15 -16
15 -30 0 -14 7 -31 15 -40 8 -8 15 -26 15 -39 0 -14 7 -27 15 -31 8 -3 15 -13
15 -23 0 -10 7 -27 15 -37 8 -11 15 -31 15 -44 0 -17 4 -23 15 -18 15 5 20
-19 15 -86 -1 -14 3 -29 9 -33 6 -3 11 0 11 7 0 13 15 -10 42 -62 7 -14 15
-27 18 -30 13 -13 70 -102 70 -109 0 -5 17 -20 38 -32 20 -13 56 -41 79 -62
45 -42 92 -70 138 -81 30 -8 118 -45 168 -72 47 -26 314 -91 487 -119 140 -23
300 -20 316 6 3 5 26 9 51 9 53 0 131 23 278 82 75 30 100 45 100 60 0 7 -9
12 -20 10 -14 -2 -29 8 -43 27 -20 27 -25 29 -49 20 -19 -7 -29 -7 -31 0 -2 6
-8 9 -13 5 -5 -3 -9 0 -9 5 0 6 -6 11 -12 11 -12 0 -38 43 -38 63 0 5 9 7 19
4 17 -4 18 -2 11 19 -10 25 -4 54 10 54 5 0 6 10 2 22 -4 18 -2 20 16 16 25
-7 30 7 6 16 -14 5 -15 15 -10 56 5 39 4 50 -7 50 -8 0 -14 9 -13 22 1 13 -7
30 -17 38 -10 8 -19 31 -20 51 -3 38 -21 69 -41 69 -6 -1 0 -10 13 -21 37 -31
17 -34 -33 -4 -25 15 -46 22 -46 16 0 -5 16 -18 35 -27 45 -21 55 -37 18 -28
l-28 7 25 -21 c18 -14 29 -17 38 -10 8 7 12 7 12 -1 0 -6 -5 -11 -11 -11 -6 0
-9 -9 -6 -20 4 -16 2 -18 -13 -10 -10 6 -26 7 -34 4 -10 -4 -26 5 -43 23 -16
16 -47 43 -69 59 -35 26 -40 33 -30 47 12 15 62 17 86 2 6 -3 10 0 10 8 0 15
-31 31 -82 43 -32 7 -52 28 -45 46 3 8 6 6 6 -5 1 -10 6 -15 11 -12 6 4 8 11
4 16 -3 6 3 13 15 16 11 3 19 9 16 13 -3 5 -15 6 -27 2 -14 -3 -19 -2 -14 6 4
7 2 12 -4 12 -6 0 -9 4 -6 9 7 10 75 -20 72 -33 -1 -10 53 -28 64 -21 4 3 10
14 13 25 7 27 -34 50 -56 31 -11 -8 -22 -7 -48 6 -18 9 -28 18 -20 21 24 8
-53 39 -124 48 -76 11 -189 56 -223 91 -12 12 -13 19 -4 33 9 14 8 19 -4 24
-16 6 -36 -31 -39 -77 -3 -32 -73 -109 -93 -102 -24 9 -25 -26 -2 -50 21 -23
22 -25 5 -31 -17 -7 -17 -8 2 -15 26 -9 37 -60 17 -75 -8 -6 -14 -21 -14 -33
0 -11 -4 -21 -10 -21 -5 0 -10 13 -10 29 0 36 -16 49 -25 21 -9 -28 -25 -25
-25 4 0 41 -50 53 -76 18 -10 -13 -19 -14 -69 -4 -32 7 -61 10 -63 7 -3 -3 0
-5 6 -5 7 0 12 -4 12 -10 0 -5 -11 -10 -25 -10 -14 0 -42 -7 -62 -15 -20 -8
-38 -13 -40 -11 -6 5 16 46 33 64 14 14 34 75 34 107 0 11 5 27 10 35 8 12 13
13 29 3 17 -11 23 -8 45 17 13 17 27 30 30 30 3 0 9 -18 12 -40 l7 -41 33 53
c43 67 54 93 54 124 0 23 -15 34 -22 14 -7 -22 -78 3 -115 41 -21 22 -45 39
-54 39 -21 0 -69 38 -69 55 0 19 27 26 34 9 3 -8 12 -14 19 -14 16 0 29 69 20
110 -4 24 -1 28 35 38 22 7 47 12 56 12 10 0 14 5 11 10 -3 5 -14 10 -24 10
-10 0 -24 6 -30 14 -7 8 -35 20 -64 26 -42 9 -53 8 -65 -4 -13 -12 -13 -18 -2
-31 11 -13 10 -18 -6 -30 -11 -8 -14 -14 -6 -15 27 0 5 -80 -23 -80 -8 0 -23
-10 -35 -22 -16 -17 -23 -19 -32 -10 -21 21 -68 15 -77 -10 -5 -13 -5 -27 -1
-33 4 -5 8 -17 8 -25 1 -8 5 -30 8 -48 4 -19 2 -32 -4 -32 -5 0 -12 -8 -15
-18 -2 -9 -26 -28 -53 -42 -58 -30 -80 -54 -89 -96 -5 -28 -35 -69 -35 -49 0
4 -7 2 -15 -5 -8 -7 -15 -22 -15 -33 0 -19 -1 -20 -13 -3 -12 16 -14 14 -30
-18 -11 -23 -24 -36 -36 -36 -31 0 -33 15 -6 54 14 20 25 39 25 41 0 10 -49 5
-55 -5 -8 -13 -25 -13 -25 0 0 6 5 10 12 10 6 0 20 7 29 16 26 23 8 54 -31 54
-21 0 -31 6 -36 23 -5 12 -7 25 -6 29 3 11 -39 131 -51 146 -6 8 -6 12 2 12 6
0 11 7 11 16 0 11 -6 14 -20 9 -14 -5 -20 -2 -20 10 0 8 6 18 14 21 20 8 27
43 13 66 -10 16 -9 22 6 32 9 7 17 24 17 37 0 14 11 41 25 61 18 27 24 45 19
63 -5 20 -1 27 20 36 18 9 26 20 26 39 0 29 46 98 52 79 2 -7 9 -9 16 -6 6 5
9 28 7 60 -3 42 -8 56 -31 74 -28 22 -28 22 -9 42 10 12 24 21 32 21 16 0 17
32 1 48 -9 9 -7 12 10 12 13 0 22 6 22 15 0 8 0 18 1 22 1 16 -18 12 -39 -8
-13 -11 -30 -18 -38 -15 -9 4 -28 -7 -47 -28 -18 -19 -49 -42 -71 -52 -21 -9
-59 -38 -85 -64 -40 -41 -70 -61 -93 -64 -4 -1 -13 -7 -19 -13 -7 -7 -19 -13
-26 -13 -7 0 -13 -3 -13 -8 0 -4 -15 -13 -32 -21 -18 -8 -36 -19 -40 -25 -10
-15 -17 -4 -20 33 -2 20 2 36 10 38 7 3 12 -4 12 -17 0 -33 34 -21 38 13 2 16
10 31 18 34 8 3 14 9 14 14 0 6 9 22 20 37 25 34 40 85 30 102 -5 9 -9 9 -14
1 -4 -6 -17 -11 -30 -11 -14 0 -28 -10 -36 -24 -18 -35 -58 -30 -75 9 -8 18
-14 23 -14 13 -1 -9 -9 -21 -18 -27 -15 -8 -16 -13 -5 -30 14 -23 16 -51 4
-51 -14 0 -32 23 -32 42 0 24 -17 23 -30 -3 -11 -19 -13 -19 -29 -5 -10 9 -21
13 -24 9 -12 -11 -8 -48 8 -69 20 -27 19 -54 -3 -54 -10 0 -23 -5 -29 -11 -19
-19 -27 11 -24 91 2 66 -1 78 -18 94 -12 11 -21 30 -21 44 l0 25 -19 -22 -19
-22 -7 21 c-5 15 -12 19 -23 15 -10 -4 -26 -10 -37 -13 -11 -3 -23 -10 -27
-16 -8 -10 -19 0 -32 29 -3 6 -14 0 -25 -13 -16 -18 -24 -21 -38 -13 -10 6
-14 11 -10 11 17 0 -15 40 -33 40 -10 0 -22 9 -25 20 -3 11 -13 20 -21 20 -10
0 -14 12 -14 40 0 22 4 40 10 40 5 0 7 -13 4 -30 -8 -35 1 -38 32 -9 l22 20 6
-25 c6 -25 26 -37 26 -16 0 6 11 15 25 20 14 5 25 14 25 20 0 6 7 18 15 26 12
13 14 10 11 -21 -1 -20 1 -38 6 -41 4 -3 8 -20 8 -38 0 -18 3 -36 7 -39 13
-14 73 96 73 134 0 26 -21 35 -35 16 -17 -23 -24 -21 -18 6 6 30 25 69 41 86
7 7 16 26 19 42 3 16 11 29 18 29 7 0 15 6 18 13 2 6 26 18 52 26 25 7 49 20
52 28 3 8 11 12 18 9 7 -2 21 1 31 9 11 7 36 11 57 10 27 -3 37 1 37 11 0 8 3
13 8 12 23 -6 145 32 204 63 10 5 24 9 33 9 17 0 239 105 278 133 16 10 49 30
75 44 26 14 83 49 127 78 44 29 89 55 100 59 11 3 31 16 45 29 14 12 50 39 80
59 30 20 67 49 81 65 14 15 34 35 45 44 30 26 78 89 104 139 23 42 24 55 24
195 -1 163 -14 303 -33 348 -15 39 -14 97 2 97 7 0 24 10 37 22 13 12 44 25
69 29 186 29 320 71 416 131 33 20 83 49 110 62 54 27 111 73 101 83 -3 3 -12
0 -21 -7 -12 -10 -15 -10 -15 4 0 10 -9 16 -25 16 -14 0 -36 6 -48 14 -12 7
-37 14 -54 14 -40 1 -44 -20 -11 -55 23 -25 13 -30 -27 -11 -28 12 -48 3 -25
-12 13 -8 12 -10 -2 -10 -9 0 -20 5 -23 10 -13 21 -24 9 -15 -15 8 -21 7 -25
-10 -25 -10 0 -22 5 -25 10 -3 6 -17 10 -30 10 -13 0 -27 -4 -30 -10 -19 -31
-75 13 -75 60 0 11 -4 20 -9 20 -11 0 -2 38 11 46 5 3 15 1 22 -5 10 -8 22 -1
50 30 23 26 42 39 51 35 8 -3 15 -1 15 4 0 6 -7 10 -15 10 -23 0 -18 18 8 26
12 4 25 12 29 18 13 19 9 54 -7 60 -19 7 -20 46 0 46 25 0 65 23 65 37 0 7 -4
13 -10 13 -5 0 -10 18 -10 39 0 23 -5 41 -12 44 -7 2 -3 2 10 0 12 -2 22 1 22
7 0 5 -8 10 -18 10 -24 0 -42 19 -34 38 4 11 1 14 -9 10 -9 -4 -21 2 -28 13
-16 27 -4 43 17 23 10 -11 17 -13 20 -5 5 16 38 -4 79 -47 38 -40 56 -37 24 4
-11 15 -21 30 -21 34 0 4 19 14 41 23 31 12 40 20 35 33 -5 13 0 15 36 10 26
-3 33 -2 19 2 -27 8 -41 32 -18 32 8 0 20 6 26 14 10 12 7 15 -15 18 -32 4
-42 23 -18 32 11 4 21 1 26 -9 11 -18 29 -20 23 -2 -2 6 10 23 27 36 26 21 34
23 62 13 33 -11 86 -6 86 9 0 5 -10 10 -22 11 -13 1 -30 2 -38 4 -8 1 -24 3
-35 3 -17 2 -16 4 8 17 15 8 25 19 21 25 -3 5 0 16 6 25 10 11 16 12 27 3 7
-7 16 -9 20 -6 8 9 -18 68 -28 62 -17 -11 -28 30 -14 55 l13 24 20 -33 c12
-19 23 -28 26 -22 4 6 2 11 -4 11 -6 0 -10 8 -8 17 1 10 -1 24 -6 31 -4 8 0
24 10 40 10 15 17 30 16 34 -1 4 10 11 24 14 l25 6 -22 24 -22 24 24 1 24 1
-23 6 c-33 10 -32 25 3 37 52 17 61 26 40 42 -17 12 -17 13 11 13 l29 0 -32
21 c-18 12 -33 27 -33 35 0 18 -47 37 -77 31 -13 -2 -24 2 -27 10 -5 12 -12
10 -36 -7 -25 -18 -30 -19 -30 -6 0 9 6 16 14 16 7 0 16 14 20 31 9 46 8 49
-13 49 -26 0 -41 22 -36 50 5 28 19 44 34 39 7 -3 6 -14 -4 -33 -19 -35 -16
-40 20 -26 19 7 25 15 21 26 -4 10 8 32 29 58 25 31 32 45 23 54 -8 8 -4 19
16 42 30 37 32 46 9 54 -12 5 -14 9 -5 18 17 17 15 24 -10 47 -20 19 -45 20
-33 1 3 -5 -4 -12 -17 -14 -61 -13 -96 -18 -125 -18 -25 0 -30 -3 -26 -16 5
-13 2 -12 -20 4 -24 17 -40 53 -18 40 10 -7 22 18 26 54 2 14 1 19 -2 13 -5
-15 -33 -18 -33 -4 0 6 10 17 22 25 27 19 16 20 -33 3 -19 -7 -34 -18 -33 -25
1 -7 0 -8 -3 -2 -2 5 -11 10 -19 10 -9 0 -12 -4 -9 -10 3 -5 0 -10 -8 -10 -21
0 -28 -26 -11 -40 8 -7 14 -9 14 -4 0 5 5 1 11 -9 6 -9 15 -15 21 -11 6 4 8
-1 5 -12 -16 -54 -19 -74 -8 -74 16 0 13 -17 -4 -24 -25 -9 -46 4 -40 25 7 20
-2 23 -31 12 -16 -6 -16 -7 2 -14 15 -6 12 -8 -13 -8 -17 -1 -40 -4 -50 -7
-15 -5 -15 -4 -3 5 8 6 11 11 5 11 -5 0 5 14 23 30 18 17 40 30 48 30 8 0 12
5 9 10 -10 16 -33 12 -54 -11 -24 -26 -34 -11 -16 25 8 14 11 34 8 43 -4 11
-3 14 5 9 9 -6 9 -1 0 19 -6 15 -17 24 -25 21 -7 -3 -12 -2 -11 2 1 4 -4 20
-10 35 -15 36 -15 60 1 76 10 11 8 11 -10 2 -34 -17 -49 -13 -80 19 -36 39
-52 37 -83 -6 -14 -19 -30 -41 -35 -47 -18 -21 -49 -72 -51 -82 0 -5 -2 -17
-3 -25 -1 -12 -4 -12 -12 3 -5 9 -7 22 -4 28 10 15 16 179 8 179 -4 0 -17 -12
-28 -26 -17 -22 -25 -25 -41 -16 -10 6 -34 16 -51 22 -18 7 -33 17 -33 22 0
26 36 67 63 72 25 5 28 8 17 21 -10 12 -9 15 4 16 25 2 29 4 51 16 30 17 12
26 -29 15 -20 -6 -34 -7 -31 -2 3 5 -7 10 -22 12 -14 2 -29 9 -31 17 -3 8 0
11 7 7 6 -4 11 -2 11 3 0 19 -28 12 -35 -9 -3 -11 -11 -20 -16 -20 -5 0 -9 -9
-9 -20 0 -11 -7 -20 -15 -20 -8 0 -15 -7 -15 -15 0 -19 -43 -37 -76 -31 -21 4
-23 2 -14 -14 17 -32 11 -48 -19 -55 -17 -3 -31 -14 -33 -23 -2 -11 -13 -16
-33 -17 -22 0 -30 -4 -29 -17 2 -17 -8 -23 -30 -19 -28 6 -89 -43 -94 -74 -2
-11 -8 -21 -12 -23 -5 -2 -6 -10 -3 -18 7 -20 -21 -28 -48 -14 -19 11 -21 10
-16 -4 4 -9 2 -16 -4 -16 -5 0 -12 6 -15 14 -3 8 -12 17 -20 20 -10 4 -13 -2
-12 -22 1 -15 6 -30 11 -33 5 -4 -5 -11 -22 -17 -21 -8 -31 -17 -31 -32 0 -12
-4 -18 -10 -15 -6 4 -8 15 -5 26 5 14 2 19 -10 19 -12 0 -15 -5 -10 -17 4 -10
10 -26 12 -35 3 -10 12 -18 19 -18 8 0 14 -4 14 -10 0 -5 -6 -10 -13 -10 -7 0
-21 -15 -30 -32 -14 -30 -16 -31 -16 -9 -1 16 -5 21 -16 17 -9 -3 -15 0 -15 9
0 8 -8 16 -17 16 -10 1 -28 3 -40 4 -26 3 -30 -16 -8 -35 8 -7 15 -21 15 -31
0 -10 4 -20 9 -23 14 -9 2 -41 -20 -55 -22 -13 -49 0 -49 23 0 6 5 4 11 -4 9
-12 9 -11 4 5 -4 11 -10 28 -12 38 -3 9 -9 17 -14 17 -5 0 -6 7 -3 15 4 8 2
15 -4 15 -14 0 -22 -26 -11 -37 16 -16 0 -44 -19 -34 -23 13 -78 -21 -66 -40
2 -4 -3 -12 -11 -19 -8 -7 -15 -21 -15 -32 0 -14 -5 -18 -16 -14 -9 3 -20 6
-25 6 -14 0 -11 33 7 58 12 18 13 29 5 52 -5 17 -8 30 -5 30 2 0 -2 13 -10 28
-8 16 -11 34 -6 41 6 11 8 11 12 0 6 -17 15 -10 20 16 2 15 -2 19 -17 17 -11
-2 -21 -8 -23 -13 -6 -17 -30 -9 -35 11 -5 20 -27 28 -27 10 0 -5 -7 -7 -15
-4 -17 7 -19 -8 -6 -34 5 -9 14 -30 21 -47 6 -16 18 -43 26 -58 19 -39 19 -71
-2 -63 -9 3 -18 6 -20 6 -3 0 -2 6 2 13 4 6 -9 -6 -30 -27 -28 -29 -34 -41
-24 -47 7 -5 8 -9 2 -9 -6 0 -11 -12 -12 -27 -1 -60 -14 -93 -34 -93 -16 0
-19 -5 -14 -25 5 -20 3 -23 -11 -18 -16 6 -16 5 -4 -11 13 -15 11 -20 -17 -44
-29 -26 -36 -45 -45 -126 -2 -17 -15 -39 -33 -53 -16 -14 -46 -40 -66 -59 -21
-19 -45 -34 -53 -34 -8 0 -15 -4 -15 -10 0 -13 -68 -42 -107 -45 -18 -1 -33 2
-33 7 0 5 -7 2 -16 -6 -8 -9 -19 -16 -24 -16 -4 0 -6 -8 -3 -18 4 -15 -2 -18
-44 -17 -44 0 -48 -2 -45 -22 2 -13 -2 -23 -7 -23 -6 0 -11 5 -11 10 0 6 -5
10 -11 10 -5 0 -7 -4 -4 -10 3 -5 2 -10 -4 -10 -5 0 -12 6 -14 13 -3 7 -6 4
-6 -6 -1 -14 -6 -17 -22 -12 -19 6 -21 4 -17 -24 4 -24 2 -28 -9 -20 -7 7 -13
18 -13 25 0 8 -6 14 -14 14 -8 0 -21 8 -28 18 -13 17 -68 25 -68 10 0 -5 8 -8
18 -8 27 0 45 -35 30 -60 -18 -29 -40 -21 -51 20 -8 33 -9 34 -24 15 -8 -11
-13 -34 -11 -52 3 -27 0 -32 -21 -36 -16 -3 -30 1 -38 11 -7 10 -13 14 -13 10
0 -15 -50 36 -50 51 0 12 -3 12 -12 3 -14 -14 -32 -16 -23 -3 3 5 1 12 -5 16
-7 4 -7 13 0 26 6 11 8 24 4 30 -3 6 4 33 16 59 20 44 38 55 56 37 25 -25 37
23 18 68 -13 32 -13 34 3 28 10 -3 24 -10 31 -16 17 -13 15 4 -4 31 -14 20
-14 22 0 22 9 0 16 3 16 7 0 18 -53 115 -66 120 -7 3 -14 14 -14 24 0 10 -4
19 -10 19 -5 0 -10 11 -10 25 0 13 -10 43 -21 65 -16 31 -19 44 -10 53 6 6 11
18 11 27 -1 12 -2 12 -11 -2 -5 -9 -16 -15 -23 -12 -8 3 -17 1 -21 -5 -3 -6
-16 -9 -28 -6 -19 5 -22 2 -22 -29 0 -19 4 -32 9 -28 5 3 7 -2 3 -11 -3 -9 0
-29 8 -44 16 -30 20 -63 8 -63 -9 0 -39 98 -49 159 -4 27 -10 38 -15 30 -4 -7
-4 -20 0 -28 5 -9 5 -25 1 -35 -6 -18 -7 -18 -13 -2 -4 9 -11 14 -17 11 -16
-10 -23 22 -12 54 6 18 7 41 2 58 -8 26 -8 26 -7 -10 0 -20 -3 -40 -6 -44 -4
-3 -7 4 -7 16 0 14 -5 21 -12 18 -7 -2 -12 -10 -10 -17 2 -8 -3 -10 -12 -7
-16 6 -24 -13 -25 -62 0 -13 -4 -27 -10 -30 -5 -4 -15 -29 -23 -56 l-12 -50
-6 35 c-5 28 0 42 22 69 22 28 25 38 16 49 -8 9 -14 10 -16 3 -5 -15 -29 -14
-35 2 -3 7 -6 6 -6 -5 -1 -9 -6 -20 -12 -24 -9 -5 -10 4 -6 32 5 27 4 33 -3
19 -5 -11 -9 -16 -9 -12 -1 5 -17 -10 -36 -33 -19 -23 -35 -36 -35 -29 0 8 -5
5 -13 -6 -14 -19 -37 -13 -37 9 0 7 14 28 30 46 22 25 30 43 30 72 0 22 4 37
9 34 5 -3 11 8 13 24 3 17 1 30 -4 30 -4 0 -8 -8 -8 -17 0 -15 -2 -14 -15 3
-13 18 -14 18 -8 -4 4 -18 1 -24 -16 -29 -11 -3 -21 -9 -21 -13 0 -5 -7 -16
-16 -25 -9 -8 -17 -33 -18 -55 -2 -56 -26 -53 -26 3 0 44 -14 77 -27 64 -4 -5
-1 -12 6 -17 18 -10 9 -75 -14 -100 -17 -18 -20 -66 -5 -75 5 -3 7 -20 4 -38
-5 -31 -5 -31 8 -9 8 12 17 19 22 15 4 -4 11 -1 15 6 6 9 10 3 13 -17 2 -17 1
-29 -3 -26 -5 2 -13 -13 -20 -36 -11 -36 -13 -38 -25 -22 -12 15 -13 14 -14
-10 0 -15 -5 -30 -12 -34 -8 -5 -9 2 -4 26 6 33 6 33 -14 15 -15 -13 -20 -14
-20 -5 0 19 -17 0 -22 -25 -3 -11 -8 7 -13 39 -6 47 -4 64 9 87 10 17 13 30 6
34 -5 3 -10 14 -10 23 0 13 2 14 9 4 7 -11 10 -10 15 3 15 40 -2 47 -34 15
l-21 -21 7 26 c8 33 -2 32 -20 -2 -8 -16 -15 -22 -16 -15 0 22 28 69 56 91 30
24 28 52 -6 88 -11 12 -20 26 -19 30 1 4 1 15 0 23 -2 25 -51 -81 -51 -111 0
-15 -5 -31 -10 -34 -6 -4 -9 -14 -6 -23 3 -10 -1 -28 -9 -42 -16 -28 -21 -9
-5 20 8 15 6 17 -10 13 -27 -7 -25 6 5 47 17 23 22 37 15 44 -12 12 -13 53 -1
60 5 3 7 16 4 27 -4 14 0 25 11 31 12 7 16 17 12 33 -4 15 1 28 15 41 21 19
22 19 15 -3 -6 -18 -4 -22 8 -17 9 3 16 12 16 20 0 23 76 18 110 -8 25 -18 32
-19 45 -8 12 10 13 15 3 21 -8 5 -3 10 15 14 15 4 27 11 27 16 0 6 -9 5 -20
-1 -11 -6 -20 -8 -20 -6 0 3 9 10 19 16 25 13 48 4 56 -21 4 -10 11 -19 16
-19 6 0 8 4 5 8 -6 10 65 9 82 -2 7 -4 21 -4 32 -1 23 7 26 -4 8 -25 -11 -12
-10 -12 5 -1 9 7 17 10 17 6 0 -5 9 0 20 10 11 10 23 15 27 11 4 -4 1 -12 -7
-17 -13 -9 -13 -10 0 -8 27 4 50 -13 50 -36 0 -28 16 -41 24 -20 3 8 11 15 18
15 7 1 29 21 48 45 19 25 37 45 41 45 3 0 14 -7 25 -16 14 -11 15 -17 6 -21
-7 -2 -22 -24 -34 -46 l-21 -42 22 19 c11 11 21 25 21 31 0 7 7 15 15 19 8 3
15 2 15 -3 0 -16 -29 -76 -30 -62 0 8 -3 12 -6 8 -3 -3 -2 -13 3 -22 8 -14 11
-12 23 12 7 15 13 32 11 37 -1 5 5 6 14 2 10 -4 14 -2 9 5 -4 8 1 9 15 4 13
-4 21 -2 21 5 0 6 -4 8 -10 5 -5 -3 -12 7 -16 22 -8 33 -23 55 -34 48 -4 -2
-6 7 -4 20 2 26 58 88 83 93 7 1 19 -3 27 -9 9 -7 14 -8 14 -1 0 6 -6 13 -12
16 -10 5 -10 7 0 12 6 3 12 12 12 19 0 8 16 22 36 31 21 10 33 22 30 30 -3 7
4 16 15 19 11 4 18 9 15 12 -3 4 -1 12 6 20 8 10 7 17 -8 27 -16 13 -17 16 -4
42 23 46 23 47 12 40 -17 -10 -22 8 -12 43 5 19 5 31 -1 31 -5 0 -9 11 -9 24
0 13 -7 29 -15 36 -8 7 -15 10 -15 7 0 -3 -12 0 -27 8 -20 10 -31 11 -40 3 -9
-7 -13 -7 -13 1 0 7 -4 10 -8 7 -5 -3 -19 6 -32 21 -17 19 -19 27 -9 33 9 6 9
12 -4 25 -10 9 -17 12 -17 6 0 -18 -44 -12 -61 7 -10 12 -13 26 -8 45 5 18 3
26 -4 24 -7 -1 -11 6 -10 17 1 17 0 17 -15 3 -13 -13 -13 -19 -2 -31 7 -9 8
-16 2 -16 -5 0 -15 14 -22 30 -13 32 -25 38 -33 18 -3 -7 -6 -3 -6 10 -1 12 4
22 9 22 6 0 10 9 10 20 0 11 -4 20 -10 20 -5 0 -10 -9 -10 -20 0 -11 -5 -20
-10 -20 -6 0 -8 -10 -4 -24 3 -14 -1 -36 -9 -53 l-15 -28 -11 29 c-13 32 -19
31 -24 -4 -3 -16 -13 -26 -31 -31 -23 -7 -26 -5 -21 12 7 21 -10 27 -18 7 -4
-10 -6 -10 -6 1 -1 8 -7 6 -18 -8 -16 -19 -21 -20 -45 -9 -17 8 -31 27 -39 51
l-12 38 -13 -33 c-27 -73 -39 -98 -46 -98 -4 0 -8 -8 -9 -17 0 -15 -2 -15 -8
2 -7 17 -11 13 -30 -27 -12 -27 -26 -48 -31 -48 -6 0 -10 -4 -10 -10 0 -16
-75 -87 -88 -82 -7 2 -12 -3 -12 -11 0 -8 -9 -17 -21 -20 -12 -3 -18 -10 -14
-16 3 -6 -3 -21 -15 -33 -19 -21 -21 -21 -14 -3 6 19 6 19 -11 3 -17 -16 -17
-18 -1 -34 16 -15 18 -15 31 2 12 16 16 17 24 5 5 -8 16 -11 25 -8 12 5 16 0
17 -16 l0 -22 11 23 c6 12 15 22 20 22 11 0 5 -11 -39 -68 -18 -24 -33 -50
-33 -58 0 -19 36 -18 44 1 3 8 16 15 28 15 l23 -1 -24 -19 c-13 -11 -19 -20
-15 -20 5 0 2 -5 -6 -10 -13 -9 -13 -12 3 -24 10 -8 14 -17 8 -20 -5 -3 -12
-24 -16 -47 -7 -38 -9 -40 -35 -34 -16 3 -31 2 -35 -4 -15 -26 -25 -7 -24 44
1 31 -3 61 -9 67 -9 9 -12 7 -12 -10 0 -12 4 -22 8 -22 16 0 -1 -64 -22 -82
-13 -10 -16 -17 -8 -18 7 0 10 -4 7 -10 -3 -6 -2 -10 4 -10 5 0 12 6 14 13 3
6 6 3 6 -9 1 -21 -26 -84 -35 -84 -3 0 -3 4 1 9 3 5 0 13 -6 17 -8 4 -9 -3 -4
-25 5 -26 2 -35 -17 -51 -33 -28 -48 -25 -48 10 0 22 -5 30 -17 31 -16 0 -15
2 2 10 17 8 15 9 -11 6 -19 -2 -31 2 -31 9 0 7 11 12 25 11 37 -3 50 25 24 54
-12 12 -22 17 -22 11 0 -7 -13 -12 -29 -12 -29 0 -46 -11 -34 -23 3 -4 14 -2
25 4 29 16 43 6 22 -16 -10 -10 -24 -28 -29 -39 -14 -27 -40 -27 -41 0 -1 28
-13 46 -25 39 -5 -4 -9 -1 -9 4 0 15 -27 14 -33 -1 -3 -7 -6 -4 -6 7 -1 12 -6
26 -13 33 -9 9 -8 12 8 12 18 1 18 1 1 11 -9 5 -22 7 -27 4 -6 -4 -7 1 -3 11
5 13 2 15 -18 8 -13 -4 -40 -8 -60 -9 -19 0 -49 -11 -66 -23 -17 -12 -35 -22
-40 -22 -20 0 -52 -47 -64 -94 -12 -48 -9 -57 24 -69 10 -3 -24 -76 -35 -77
-5 0 -8 7 -8 15 0 8 -4 15 -10 15 -5 0 -10 11 -10 25 0 15 -6 38 -14 53 -7 15
-17 52 -21 82 -4 30 -12 61 -17 67 -13 17 -1 63 20 80 15 11 14 12 -8 13 -14
0 -31 4 -39 9 -16 10 -27 102 -15 128 9 20 11 30 13 56 0 9 17 25 36 34 24 12
31 19 23 25 -9 5 -7 8 7 8 29 0 114 43 115 58 0 8 -20 12 -70 12 -135 0 -375
46 -477 92 -34 15 -43 22 -30 25 10 3 39 -5 65 -17 95 -45 227 -71 390 -77
110 -4 152 -3 152 6 0 6 5 11 12 11 18 0 47 31 42 45 -3 6 12 30 33 51 21 21
46 55 57 74 10 19 24 38 30 42 19 13 53 9 66 -7 21 -25 30 -17 30 26 0 36 2
40 15 29 18 -15 18 -15 34 28 11 25 19 32 41 32 16 0 35 7 44 15 8 9 21 14 28
13 7 -2 14 7 16 20 3 21 19 27 63 24 9 -1 19 8 22 20 4 14 11 19 21 15 9 -4
16 -2 16 3 0 6 3 9 8 8 15 -3 63 22 68 37 3 8 9 13 13 10 4 -2 18 6 32 19 13
12 32 25 41 28 11 5 19 24 23 65 9 67 14 80 26 62 8 -11 11 -11 20 4 12 21 42
22 59 2 16 -19 30 -19 30 -1 0 8 4 16 10 18 5 2 11 19 14 38 3 19 8 47 12 61
5 21 2 27 -16 32 -12 3 -19 10 -16 15 3 6 0 13 -6 16 -7 3 -1 3 15 -1 22 -4
26 -2 21 11 -3 9 -2 16 4 16 11 0 37 58 29 66 -10 10 -47 -7 -47 -22 0 -8 5
-14 11 -14 5 0 8 -4 4 -10 -3 -5 -12 -7 -20 -3 -8 3 -15 1 -15 -5 0 -6 -8 -9
-17 -7 -10 1 -17 9 -15 18 1 8 -7 18 -18 22 -30 10 -24 24 18 42 30 12 64 15
178 11 78 -3 147 -9 155 -13 7 -5 25 -10 39 -11 47 -5 79 -68 61 -118 l-11
-28 -33 21 -33 20 4 -35 c3 -20 11 -38 19 -41 26 -10 66 -55 54 -62 -6 -4 -7
-12 -1 -21 9 -13 10 -13 10 0 1 12 3 11 11 -3 5 -9 8 -21 5 -26 -4 -5 2 -7 12
-4 10 2 26 -5 36 -16 11 -12 16 -21 13 -21 -4 0 -2 -11 3 -24 7 -21 6 -23 -11
-19 -10 3 -19 1 -19 -4 0 -5 -7 -10 -15 -10 -9 0 -14 7 -12 16 2 9 9 15 15 14
7 -2 12 6 12 16 0 14 -5 18 -19 14 -31 -8 -33 -31 -6 -81 13 -26 24 -41 25
-34 0 20 58 -51 66 -82 3 -15 10 -24 15 -19 5 5 -1 55 -12 113 -16 78 -22 146
-23 265 -1 147 1 163 21 201 44 82 121 118 318 149 50 8 106 17 125 21 82 15
607 4 705 -15 195 -39 320 -73 308 -85 -4 -4 -1 -7 7 -6 32 5 51 0 44 -12 -5
-7 -3 -8 5 -4 7 5 19 0 27 -10 9 -11 12 -12 8 -4 -7 13 -4 12 16 -1 14 -9 34
-32 44 -52 11 -20 22 -34 25 -32 11 6 15 -36 15 -145 -2 -171 -70 -427 -155
-578 -16 -29 -27 -58 -23 -65 4 -7 4 -9 -1 -5 -7 7 -99 -109 -100 -126 0 -18
-99 -76 -163 -96 -136 -41 -235 -53 -425 -48 -193 5 -226 -7 -65 -24 197 -21
471 18 583 82 169 97 307 352 375 693 10 51 16 60 40 69 28 9 50 49 50 90 0
11 9 22 20 25 11 3 20 9 20 14 0 8 40 21 101 33 24 5 28 13 38 67 6 34 18 67
27 73 21 16 15 45 -18 81 -35 37 -35 41 -1 50 20 5 31 1 42 -13 9 -11 26 -25
39 -31 31 -16 29 -55 -3 -69 -19 -9 -25 -9 -25 1 0 6 -5 4 -11 -6 -13 -22 -5
-34 35 -51 28 -12 34 -20 39 -57 4 -34 1 -51 -15 -78 -18 -28 -19 -35 -7 -42
8 -5 20 -12 27 -17 7 -5 14 -35 16 -67 2 -33 9 -61 15 -63 6 -2 11 -22 11 -45
0 -39 3 -44 46 -70 26 -15 47 -27 48 -25 1 2 -2 95 -6 208 -11 272 -20 385
-32 397 -3 3 -6 22 -6 40 0 92 -80 429 -126 530 -8 17 -14 34 -14 38 0 16 -63
131 -91 166 -24 30 -38 39 -61 39 -28 0 -30 -2 -23 -27 3 -16 15 -37 26 -49
10 -11 19 -28 19 -37 0 -9 5 -19 11 -23 6 -3 9 -19 5 -35 -3 -16 -1 -29 4 -29
5 0 17 -11 26 -25 13 -21 15 -31 6 -50 -10 -21 -8 -28 14 -50 20 -20 23 -29
15 -44 -6 -10 -17 -21 -26 -25 -21 -8 -19 -33 4 -41 10 -3 26 -14 36 -25 16
-18 16 -20 -1 -49 -18 -30 -18 -31 9 -59 32 -34 33 -43 7 -67 -27 -24 -25 -32
10 -62 36 -29 38 -46 8 -67 -23 -16 -58 -6 -58 17 0 7 -13 28 -28 47 -25 30
-27 37 -19 69 8 29 6 44 -7 72 -10 21 -15 51 -13 73 4 31 0 40 -26 62 -26 22
-28 27 -15 42 19 22 15 78 -7 102 -11 12 -15 28 -12 41 6 23 -12 68 -36 88 -8
6 -13 20 -10 30 6 23 -33 96 -65 121 l-26 21 -13 -33 c-13 -29 -12 -34 6 -48
15 -11 21 -31 24 -85 3 -38 14 -97 25 -130 10 -33 20 -78 21 -99 1 -21 5 -46
10 -55 4 -9 7 -29 6 -46 -1 -16 4 -34 12 -40 8 -6 14 -31 14 -65 1 -87 -4
-112 -25 -120 -18 -6 -19 -7 -2 -13 15 -6 17 -14 12 -48 -4 -26 -2 -46 5 -55
7 -8 9 -17 6 -21 -4 -3 -78 12 -164 35 -442 114 -959 153 -1294 97 -229 -38
-324 -67 -395 -121 l-36 -28 -121 13 c-196 19 -217 22 -211 32 3 5 9 7 14 4
10 -6 50 16 50 27 0 5 -9 8 -20 8 -11 0 -20 4 -20 8 0 4 -9 8 -20 8 -11 0 -20
-3 -20 -7 0 -4 -7 -10 -16 -13 -9 -4 -13 -2 -8 5 4 7 -2 6 -17 -1 -14 -8 -24
-9 -26 -3 -11 33 -31 44 -81 45 -28 1 -52 4 -52 8 0 3 16 13 36 20 29 12 32
15 17 21 -10 4 -12 8 -5 8 17 1 15 31 -2 31 -21 0 -26 24 -14 67 9 33 12 35
19 18 7 -19 8 -19 8 3 1 12 6 22 11 22 12 0 13 47 1 54 -5 3 -12 -6 -16 -21
-5 -20 -9 -23 -15 -13 -11 18 9 60 26 53 8 -3 14 0 14 6 0 6 7 11 16 11 8 0
12 5 9 10 -3 6 -1 10 6 10 7 0 9 3 6 6 -4 4 -12 2 -19 -3 -16 -13 -48 -13 -48
-1 0 14 23 33 45 36 11 2 23 9 26 14 4 6 12 7 18 3 9 -5 9 -10 0 -21 -6 -8 -9
-18 -5 -21 10 -11 26 18 26 48 0 21 6 27 43 35 33 7 43 14 45 32 3 20 0 22
-23 16 l-26 -6 31 46 c29 42 52 57 63 39 2 -5 2 -3 1 4 -2 7 6 15 17 18 13 5
19 15 19 38 0 23 -3 28 -11 20 -6 -6 -18 -9 -25 -6 -8 3 -14 -1 -15 -8 -1 -8
-5 -3 -9 11 -7 22 -8 23 -9 4 -1 -22 -23 -46 -56 -59 -18 -7 -18 -9 -2 -12 9
-3 17 -8 17 -13 0 -5 -6 -7 -14 -4 -8 3 -16 -2 -19 -13 -4 -14 -5 -14 -6 5 -1
15 -7 22 -21 22 -12 0 -20 -6 -19 -12 4 -37 -2 -48 -28 -48 -26 0 -26 1 -7 15
18 14 18 14 -6 15 -19 0 -21 3 -11 9 8 5 21 7 29 3 10 -3 13 -1 8 6 -4 7 -2
12 3 12 6 0 11 7 11 15 0 8 6 15 13 15 7 0 32 12 55 27 34 22 39 29 29 42 -9
12 -9 13 0 7 8 -4 24 3 40 18 15 15 22 26 15 26 -6 0 -11 6 -10 13 2 7 -8 12
-24 12 -15 0 -33 6 -40 13 -11 11 -10 16 5 26 9 7 17 18 17 25 0 6 5 11 11 11
6 0 9 7 5 15 -3 8 -1 15 4 15 6 0 10 -5 10 -11 0 -6 9 -8 20 -4 11 4 20 2 20
-4 0 -6 -11 -13 -25 -17 -14 -3 -25 -13 -25 -21 0 -12 7 -11 36 6 19 12 41 21
47 20 7 0 1 -5 -12 -10 -18 -7 -22 -14 -17 -32 3 -12 6 -30 6 -39 0 -10 7 -18
15 -18 8 0 15 -5 15 -11 0 -5 5 -7 10 -4 6 4 8 10 6 14 -3 4 4 22 15 39 10 18
19 37 19 43 0 5 7 21 16 35 23 35 47 15 38 -32 -7 -37 14 -50 23 -14 8 31 23
23 24 -12 0 -18 3 -27 6 -20 2 6 8 10 12 7 5 -2 6 18 3 46 -3 37 0 59 14 84
10 19 15 38 11 42 -13 12 -42 -12 -45 -38 -9 -82 -32 -96 -32 -20 0 30 -5 52
-12 55 -10 4 -9 9 3 17 15 12 16 16 1 58 -9 25 -17 47 -18 49 -4 8 -34 -12
-34 -24 0 -8 -4 -14 -10 -14 -5 0 -10 8 -10 18 0 21 -30 -32 -31 -57 -1 -9 -4
-5 -8 9 -4 14 -5 27 -1 30 3 3 11 18 18 34 15 33 -1 64 -23 46 -9 -8 -15 -6
-20 7 -6 17 -7 17 -16 1 -6 -10 -17 -18 -25 -18 -9 0 -14 -7 -12 -17 2 -10 11
-17 21 -17 9 1 14 -2 11 -7 -3 -5 -14 -9 -26 -9 -19 0 -20 4 -14 51 5 34 4 49
-4 44 -5 -3 -10 1 -10 10 0 9 -5 13 -10 10 -6 -4 -8 -10 -5 -15 3 -5 1 -11 -5
-15 -5 -3 -10 2 -10 13 0 25 -7 31 -31 25 -12 -4 -19 -14 -19 -30 0 -16 -5
-23 -12 -20 -7 2 -12 10 -10 16 1 6 -2 11 -8 11 -5 0 -10 -6 -10 -14 0 -8 -7
-16 -15 -20 -10 -4 -15 1 -15 14 0 11 -8 28 -19 39 -18 18 -19 18 -36 -11 -21
-36 -12 -49 14 -19 22 25 34 15 27 -25 -7 -34 -29 -58 -77 -82 -37 -19 -39
-19 -39 -1 0 10 11 30 25 45 30 32 34 88 8 98 -17 7 -53 -24 -66 -56 -3 -10
-14 -18 -23 -18 -17 0 -16 12 2 80 7 22 6 24 -9 11 -9 -7 -17 -22 -17 -32 0
-30 -34 -88 -51 -89 -19 0 -55 -37 -46 -47 4 -3 19 0 33 8 15 7 37 12 49 11
14 -2 31 6 44 19 27 29 39 17 16 -17 -16 -25 -16 -27 0 -21 10 4 15 3 13 -4
-5 -14 -112 -55 -164 -63 -21 -3 -40 -5 -40 -6 -1 0 -4 -19 -8 -42 -5 -31 -9
-39 -16 -28 -12 20 -24 -31 -17 -75 3 -19 2 -37 -2 -39 -4 -3 -13 -27 -21 -55
-14 -53 -26 -52 -45 4 -7 20 -17 30 -30 30 -11 0 -19 -6 -17 -12 1 -7 -2 -13
-8 -13 -5 0 -10 -4 -10 -10 0 -5 7 -10 15 -10 18 0 20 -17 3 -22 -6 -2 -8 -10
-4 -17 6 -9 11 -9 22 0 12 10 15 10 12 -1 -2 -8 11 -17 30 -23 17 -5 32 -16
32 -23 0 -15 -22 -19 -34 -7 -3 4 -15 8 -26 10 -15 2 -20 -3 -21 -20 0 -18 -2
-19 -7 -5 -6 16 -9 15 -32 -3 -14 -11 -18 -18 -10 -17 8 2 14 -3 12 -9 -1 -7
5 -13 13 -13 8 0 15 -6 15 -13 0 -22 -11 -27 -27 -12 -16 17 -43 20 -43 6 0
-6 10 -17 22 -25 16 -12 19 -19 11 -27 -8 -8 -13 -8 -17 0 -13 21 -38 12 -34
-11 2 -18 9 -23 31 -22 15 1 27 -3 27 -8 0 -5 4 -7 9 -4 5 3 7 16 4 29 -6 22
-6 22 13 2 11 -12 28 -19 42 -17 13 2 30 -2 37 -8 12 -10 16 -8 23 10 7 20 10
21 15 6 8 -21 84 -16 78 5 -20 74 -20 79 5 79 25 0 34 -24 12 -33 -8 -3 -6 -6
5 -6 10 -1 17 -7 16 -13 -1 -7 1 -21 5 -30 10 -22 38 -24 30 -3 -4 8 -1 15 6
15 7 0 10 8 7 20 -6 23 11 28 19 6 8 -21 36 -29 47 -14 6 10 7 9 4 -4 -4 -12
5 -21 34 -32 21 -9 39 -20 39 -25 0 -12 -52 -11 -68 2 -11 8 -16 7 -23 -6 -12
-21 -48 -22 -55 -2 -4 10 -14 13 -32 8 -17 -4 -23 -2 -18 6 12 18 -13 13 -36
-9 l-22 -20 27 0 c15 0 39 -7 52 -16 14 -9 25 -12 25 -7 0 5 19 10 43 10 23 1
52 3 65 3 28 2 37 -4 27 -20 -5 -8 -11 -8 -21 1 -8 7 -14 7 -14 1 0 -5 -10
-12 -21 -15 -17 -5 -20 -11 -16 -29 5 -19 2 -24 -13 -24 -15 0 -18 5 -14 20 5
15 3 18 -10 13 -10 -4 -16 -1 -16 9 0 8 -5 12 -10 9 -6 -4 -8 -11 -5 -16 3 -5
0 -6 -8 -3 -8 3 -14 13 -13 22 1 13 -9 18 -37 20 -32 3 -39 0 -44 -17 -6 -23
-18 -27 -28 -11 -3 6 -1 10 4 10 19 0 12 17 -9 23 -11 3 -20 2 -20 -1 0 -4
-24 -7 -53 -6 -80 2 -87 3 -87 17 0 19 -35 37 -64 31 -19 -3 -26 0 -26 11 0 8
-3 14 -7 14 -25 -4 -43 3 -43 16 0 8 -4 15 -10 15 -5 0 -10 -10 -10 -22 l0
-22 -16 22 c-21 31 -34 28 -34 -8 0 -28 -3 -30 -30 -28 -19 1 -36 11 -45 25
-19 28 -39 29 -66 4 -15 -13 -18 -25 -13 -45 4 -19 2 -26 -8 -26 -17 0 -48 31
-48 47 0 6 -6 16 -14 22 -12 10 -13 5 -9 -30 6 -39 5 -41 -14 -30 -16 8 -24 7
-33 -4 -6 -7 -21 -15 -33 -17 -14 -2 -21 -10 -21 -21 1 -10 -5 -17 -17 -17
-11 0 -19 -7 -19 -15 0 -8 8 -15 17 -15 12 0 14 -3 7 -10 -8 -8 -20 -7 -39 0
-22 8 -37 7 -64 -3 -29 -12 -43 -12 -71 -3 -19 6 -35 17 -35 25 0 17 -31 38
-42 27 -4 -4 0 -13 10 -20 24 -18 21 -26 -9 -26 -24 0 -26 3 -21 29 l6 28 -67
6 c-37 3 -72 1 -78 -4 -6 -5 -15 -5 -19 -1 -9 7 -7 3 14 -40 17 -33 2 -59 -29
-51 -17 5 -20 0 -20 -28 0 -18 7 -40 15 -49 14 -15 3 -18 -141 -40 -86 -12
-164 -23 -173 -24 -21 -1 -18 45 10 127 13 36 22 92 23 134 2 49 8 78 18 90 8
10 13 23 11 30 -2 6 7 23 21 37 26 25 34 48 17 43 -5 -1 -16 6 -24 17 -12 17
-19 18 -79 7 -35 -6 -85 -11 -110 -11 -35 0 -54 -7 -84 -30 -86 -66 -110 -79
-149 -81 -51 -3 -79 15 -101 63 -16 35 -16 44 0 149 10 61 23 125 30 143 34
79 40 117 41 231 0 89 5 134 19 175 18 54 153 270 168 270 4 0 8 8 8 18 1 25
26 67 41 67 7 0 14 6 17 14 3 9 0 11 -8 6 -8 -5 -11 -3 -8 6 3 8 11 14 18 14
7 0 34 41 59 90 57 112 66 124 146 206 36 37 65 71 65 76 0 5 14 8 31 5 25 -4
38 2 70 34 21 21 39 45 39 52 0 8 8 21 18 28 9 7 12 14 6 14 -7 0 -25 -15 -42
-34 l-30 -35 -7 27 c-5 21 -1 31 18 47 13 11 44 36 68 56 24 20 65 47 92 59
26 13 47 28 47 32 0 5 5 6 10 3 23 -14 9 -45 -30 -65 -40 -21 -53 -40 -25 -40
8 0 56 16 107 36 51 20 122 46 157 60 35 13 79 33 98 45 19 12 65 29 104 39
38 10 101 37 139 60 l69 42 76 -7 c86 -8 143 9 160 48 8 17 22 23 60 28 77 10
160 26 217 43 253 75 297 80 663 79 308 -1 335 -3 410 -24 44 -12 112 -25 150
-29 87 -9 145 -23 254 -60 68 -23 116 -31 227 -39 135 -10 243 -35 259 -62 4
-5 16 -9 28 -9 32 0 120 -60 135 -93 8 -16 28 -37 46 -48 18 -10 40 -36 50
-58 9 -22 38 -58 63 -81 36 -32 54 -40 84 -40 21 0 42 -6 46 -13 4 -7 28 -28
53 -45 76 -54 146 -124 189 -191 23 -35 41 -68 41 -74 0 -5 23 -54 50 -108 28
-54 50 -105 50 -112 0 -8 22 -48 48 -88 75 -115 85 -149 86 -299 l1 -128 -31
-39 c-17 -21 -44 -44 -60 -52 -16 -8 -36 -17 -44 -21 -21 -11 -14 -52 20 -125
15 -33 31 -71 35 -85 5 -22 4 -23 -7 -9 -12 14 -58 33 -58 23 0 -5 31 -40 98
-113 84 -91 119 -176 153 -371 22 -130 40 -463 38 -701 -1 -86 1 -162 5 -168
4 -6 2 -11 -3 -11 -6 0 -11 -6 -11 -12 1 -8 8 -4 18 8 10 11 23 19 30 16 6 -2
12 1 12 7 0 6 5 10 11 8 6 -1 16 12 22 28 5 17 13 32 16 35 8 6 31 56 43 95
31 99 86 396 93 499 2 44 11 149 20 231 21 212 18 345 -11 442 -6 21 -4 22 27
13 18 -6 37 -6 41 -2 4 4 4 47 0 96 l-8 88 28 -6 c15 -3 28 -2 28 3 0 15 -29
33 -44 28 -10 -4 -21 26 -46 126 -43 177 -85 308 -125 387 -18 36 -36 81 -40
100 -4 19 -23 64 -43 100 -19 36 -59 112 -89 170 -94 182 -294 448 -432 575
-24 22 -66 64 -94 92 -27 29 -53 50 -58 47 -5 -3 -6 2 -3 10 3 9 -12 30 -39
56 -25 22 -64 69 -86 104 -30 46 -52 68 -81 81 -22 10 -45 24 -50 31 -6 6 -20
9 -32 6 -16 -4 -20 -2 -15 10 3 9 -4 34 -15 57 -19 40 -52 59 -86 52 -18 -3
-76 24 -92 44 -7 8 -16 12 -21 9 -5 -3 -9 -1 -9 4 0 17 -77 49 -205 86 -233
67 -446 139 -467 158 -12 10 -22 18 -23 18 -2 0 -47 9 -100 20 -95 19 -251 28
-242 13z m1256 -528 c-12 -19 -26 -38 -32 -42 -11 -7 -5 6 25 50 27 38 31 34
7 -8z m69 -147 c2 -4 10 -8 18 -8 19 0 18 -7 -6 -37 -11 -14 -20 -35 -21 -47
-1 -15 -4 -11 -10 12 -5 18 -14 30 -18 27 -5 -2 -25 6 -45 20 -20 14 -43 25
-51 25 -19 0 -19 20 0 47 l15 22 58 -26 c31 -15 59 -30 60 -35z m72 -43 c7 -8
8 -15 2 -15 -5 0 -15 7 -22 15 -7 8 -8 15 -2 15 5 0 15 -7 22 -15z m-30 -15
c0 -5 -5 -10 -11 -10 -5 0 -7 5 -4 10 3 6 8 10 11 10 2 0 4 -4 4 -10z m88 -40
c0 -22 4 -29 16 -24 8 3 17 1 21 -5 3 -6 -2 -11 -12 -11 -12 0 -14 -3 -6 -8 8
-5 3 -16 -15 -37 -14 -17 -23 -22 -19 -13 5 13 -2 22 -23 33 l-30 16 17 32 c9
18 16 39 14 47 -2 11 3 9 17 -5 11 -11 20 -22 20 -25z m-3573 -66 c47 -87 57
-127 14 -57 -68 110 -79 129 -79 141 0 26 19 1 65 -84z m3676 33 c-13 -12 -20
-15 -15 -7 12 22 28 39 33 34 3 -3 -6 -15 -18 -27z m-3816 -44 c7 -15 13 -103
8 -103 -1 0 -13 21 -27 46 -20 36 -24 50 -15 60 15 19 25 18 34 -3z m-65 -33
c-6 -11 -17 -20 -25 -20 -8 0 -15 -8 -15 -19 0 -21 23 -45 33 -34 4 3 7 -2 7
-12 0 -14 6 -16 28 -12 22 4 29 2 29 -10 0 -9 -8 -18 -18 -20 -10 -3 -15 -11
-12 -19 3 -8 -1 -14 -11 -14 -12 0 -16 -10 -16 -42 l-1 -43 -64 70 c-36 39
-65 75 -65 82 0 7 16 25 36 40 19 15 47 38 60 51 31 28 48 29 34 2z m3895 -13
c36 -32 36 -33 17 -50 -20 -19 -52 -14 -52 8 0 7 -11 17 -25 22 -25 8 -25 9
-8 30 10 13 21 23 24 23 4 0 23 -15 44 -33z m-3880 -17 c3 -5 1 -10 -4 -10 -6
0 -11 5 -11 10 0 6 2 10 4 10 3 0 8 -4 11 -10z m3999 -130 c39 -44 72 -77 74
-75 3 3 -1 11 -8 20 -7 9 -11 17 -9 20 2 2 19 -14 37 -36 30 -35 33 -56 4 -27
-30 30 -7 -8 51 -84 89 -118 181 -268 277 -453 23 -44 38 -69 34 -55 -9 33
-126 260 -167 325 -18 28 -59 89 -92 135 -77 107 -85 121 -52 91 15 -14 27
-28 27 -33 0 -8 11 -23 63 -83 15 -18 27 -35 27 -39 0 -3 29 -50 65 -105 35
-54 72 -116 82 -137 10 -22 20 -41 23 -44 3 -3 20 -39 38 -80 18 -41 41 -93
52 -115 36 -78 48 -112 104 -295 19 -63 38 -136 41 -162 l7 -46 -33 1 c-25 2
-34 7 -37 22 -6 44 -55 231 -63 241 -4 5 -6 20 -3 31 7 27 -39 78 -62 69 -8
-3 -12 -2 -9 4 10 15 -142 325 -221 451 -13 20 -20 40 -17 43 4 3 2 6 -4 6 -6
0 -23 20 -37 45 -15 25 -31 45 -36 45 -6 0 -10 9 -10 20 0 11 -4 20 -9 20 -5
0 -20 17 -32 38 -13 20 -27 39 -31 40 -4 2 -8 8 -8 12 0 5 -10 20 -22 33 -39
39 -133 149 -136 158 -2 5 -10 9 -19 9 -8 0 -13 3 -11 8 24 49 33 62 42 62 6
-1 42 -36 80 -80z m-4183 9 c-11 -19 -9 -25 22 -58 36 -38 87 -110 87 -124 0
-12 -49 27 -50 39 0 16 -28 26 -36 13 -3 -6 3 -24 15 -40 25 -34 30 -69 6 -49
-8 6 -20 8 -26 4 -8 -5 -10 -2 -7 8 4 8 1 15 -7 15 -8 0 -11 -7 -7 -16 4 -12
0 -11 -19 4 l-24 20 18 -21 c9 -11 17 -23 17 -27 0 -3 -18 -25 -40 -47 -22
-22 -40 -46 -40 -52 0 -5 -29 -40 -64 -77 -35 -36 -86 -90 -112 -120 -161
-176 -188 -202 -194 -185 -5 13 -9 14 -14 6 -4 -7 -11 -10 -16 -7 -37 23 189
386 338 544 17 19 32 38 32 43 0 4 8 8 17 8 9 0 13 3 10 6 -4 4 9 24 28 46 19
21 35 42 35 47 0 6 5 22 10 37 8 21 13 25 23 15 9 -9 9 -16 -2 -32z m1886
-1214 c-24 -24 -29 -18 -10 11 9 15 19 22 21 15 2 -6 -3 -18 -11 -26z m35 3
c-7 -7 -12 -8 -12 -2 0 14 12 26 19 19 2 -3 -1 -11 -7 -17z m166 -66 c2 -7 -3
-12 -12 -12 -9 0 -16 7 -16 16 0 17 22 14 28 -4z m-44 -34 c-5 -7 -2 -9 9 -5
11 4 14 2 10 -9 -3 -7 -13 -14 -23 -14 -10 0 -22 -9 -25 -20 -3 -11 -11 -20
-16 -20 -6 0 -7 9 -4 20 4 14 2 20 -9 20 -8 0 -18 5 -22 11 -4 8 3 9 26 4 21
-5 30 -4 26 3 -3 6 0 13 6 15 22 9 29 7 22 -5z m2721 -8 c3 -5 -3 -10 -14 -10
-12 0 -21 5 -21 10 0 6 6 10 14 10 8 0 18 -4 21 -10z m-2854 -12 l41 0 -31
-20 c-31 -20 -41 -38 -20 -38 5 0 8 -4 4 -10 -3 -5 -12 -7 -19 -4 -8 3 -16 -4
-19 -16 -3 -12 -10 -19 -16 -15 -6 3 -21 -4 -34 -17 -47 -46 -126 -77 -134
-52 -4 11 38 34 62 34 20 0 30 21 14 30 -17 11 29 51 52 44 8 -2 26 8 40 22
l24 26 -24 -7 c-16 -5 -26 -3 -32 6 -8 12 -11 12 -18 -1 -6 -8 -13 -11 -17 -7
-4 4 -5 10 -1 13 8 9 70 22 80 17 4 -2 26 -5 48 -5z m3008 -44 c7 -18 10 -38
6 -43 -6 -11 -105 -11 -105 0 0 4 12 25 26 47 31 47 55 46 73 -4z m-3199 -10
c0 -18 -33 -49 -38 -35 -6 19 -47 12 -72 -11 -14 -13 -27 -23 -30 -23 -3 -1
-15 -6 -27 -13 -19 -11 -23 -10 -23 3 0 8 -4 15 -10 15 -31 0 1 25 83 64 82
39 93 42 105 28 6 -9 12 -21 12 -28z m467 20 c2 -10 -4 -28 -13 -39 -14 -19
-16 -19 -28 -3 -10 13 -15 15 -24 6 -24 -24 -11 0 16 30 30 34 46 36 49 6z
m-647 -19 c0 -1 -9 -5 -19 -8 -13 -3 -18 -1 -14 9 4 10 33 10 33 -1z m430 -45
c0 -11 -7 -20 -15 -20 -15 0 -21 21 -8 33 12 13 23 7 23 -13z m-503 -32 c-3
-8 -6 -5 -6 6 -1 11 2 17 5 13 3 -3 4 -12 1 -19z m30 0 c-3 -8 -6 -5 -6 6 -1
11 2 17 5 13 3 -3 4 -12 1 -19z m643 -17 c0 -6 -8 -16 -19 -23 -10 -7 -21 -22
-24 -33 -3 -14 -5 -11 -6 11 0 16 4 35 11 42 14 14 38 16 38 3z m-630 -27 c0
-14 -12 -19 -23 -8 -9 9 4 35 14 28 5 -3 9 -12 9 -20z m40 -37 c0 -4 -7 -2
-15 7 -8 8 -15 21 -15 28 1 14 30 -20 30 -35z m374 25 c8 -13 -40 -36 -55 -27
-9 6 -7 11 6 22 21 15 41 17 49 5z m-334 -22 c0 -5 -4 -10 -10 -10 -5 0 -10 5
-10 10 0 6 5 10 10 10 6 0 10 -4 10 -10z m213 -49 c4 -15 -2 -20 -29 -25 -63
-11 -109 -16 -96 -10 6 3 12 12 12 20 0 18 34 33 76 33 23 1 33 -4 37 -18z
m53 -27 c-4 -10 1 -22 11 -29 15 -11 15 -13 -7 -25 -20 -10 -22 -10 -17 3 7
19 -11 37 -32 30 -14 -4 -14 -3 1 10 10 8 15 17 11 20 -3 4 4 7 16 7 17 0 22
-4 17 -16z m-376 -29 c0 -8 -6 -15 -14 -15 -17 0 -28 14 -19 24 12 12 33 6 33
-9z m130 -15 c0 -5 -9 -10 -21 -10 -11 0 -17 5 -14 10 3 6 13 10 21 10 8 0 14
-4 14 -10z m139 -23 c40 -11 73 -39 61 -51 -7 -7 -80 17 -80 26 0 5 -7 8 -15
8 -9 0 -18 7 -21 15 -4 8 -17 15 -30 15 -13 0 -24 4 -24 9 0 6 13 6 33 0 17
-6 52 -16 76 -22z m-146 -14 c-7 -2 -21 -2 -30 0 -10 3 -4 5 12 5 17 0 24 -2
18 -5z m118 -55 c5 -21 14 -36 19 -33 5 3 7 12 3 20 -3 8 0 15 6 15 6 0 11 -7
11 -15 0 -11 12 -15 45 -15 47 0 60 -14 25 -25 -12 -4 -27 -1 -35 5 -11 9 -15
9 -15 1 0 -6 -5 -11 -11 -11 -5 0 -7 5 -3 12 5 8 0 9 -15 5 -15 -3 -24 1 -31
14 -13 24 -34 25 -26 2 6 -17 5 -17 -8 -1 -7 10 -27 21 -45 24 -17 4 -31 11
-31 16 0 5 5 6 10 3 6 -3 10 1 10 9 0 12 10 15 40 14 38 -1 41 -4 51 -40z
m-241 -18 c0 -11 -7 -20 -15 -20 -8 0 -15 9 -15 20 0 11 7 20 15 20 8 0 15 -9
15 -20z m-83 -25 c0 -8 -6 -16 -14 -19 -8 -3 -13 2 -13 14 0 11 6 20 13 20 8
0 14 -7 14 -15z m498 -35 c3 -6 -1 -13 -10 -16 -19 -8 -30 0 -20 15 8 14 22
14 30 1z m-325 -111 c0 -5 -7 -9 -15 -9 -7 0 -19 -8 -24 -17 -9 -16 -10 -16
-11 4 0 12 8 26 17 32 19 10 33 6 33 -10z m-2497 -201 c-3 -106 -10 -194 -14
-196 -4 -2 -5 -11 -2 -20 7 -22 -25 28 -64 98 -24 44 -29 64 -25 100 2 25 8
49 13 55 5 5 9 19 9 31 0 13 4 25 9 29 6 3 20 26 32 50 12 25 28 45 36 45 10
0 11 -38 6 -192z m1362 182 c-3 -5 -15 -10 -26 -10 -10 0 -19 5 -19 10 0 6 12
10 26 10 14 0 23 -4 19 -10z m1184 -16 c2 -2 2 -6 -1 -9 -9 -9 -58 6 -58 17 0
9 49 3 59 -8z m-2229 -44 c0 -41 -92 -324 -111 -340 -3 -3 -9 -13 -12 -24 -6
-15 -10 -16 -22 -6 -40 33 -47 281 -10 355 18 36 25 41 68 47 27 4 51 9 54 12
15 14 33 -10 33 -44z m2266 -7 c-10 -10 -19 5 -10 18 6 11 8 11 12 0 2 -7 1
-15 -2 -18z m110 13 c3 -8 -1 -25 -10 -37 -14 -21 -16 -21 -22 -5 -4 11 -1 22
7 28 10 7 3 8 -23 4 -26 -3 -38 -1 -38 8 0 19 79 21 86 2z m-1196 -12 c0 -2
-12 -4 -26 -4 -14 0 -23 4 -20 9 6 8 46 4 46 -5z m1070 -49 c0 -3 -9 0 -20 7
-11 7 -20 18 -20 25 0 8 8 5 20 -7 11 -11 20 -22 20 -25z m-1047 15 c10 0 15
-5 12 -10 -3 -6 2 -13 12 -17 14 -6 10 -9 -17 -13 -19 -3 -43 -1 -54 5 -14 7
-20 7 -23 -2 -3 -8 -23 -13 -50 -13 -40 0 -44 2 -32 16 9 10 22 14 41 10 21
-4 30 -1 39 15 8 15 17 19 32 15 12 -3 30 -6 40 -6z m-1159 -150 c-19 -63 -37
-116 -40 -119 -13 -13 26 143 51 203 29 69 24 33 -11 -84z m2186 110 c0 -5 -5
-10 -11 -10 -5 0 -7 5 -4 10 3 6 8 10 11 10 2 0 4 -4 4 -10z m60 0 c13 -7 16
-17 12 -32 -5 -20 -3 -21 10 -10 13 10 17 10 20 0 4 -11 8 -11 20 0 11 9 18
10 23 2 3 -5 -1 -10 -9 -10 -9 0 -16 -4 -16 -10 0 -5 5 -10 12 -10 8 0 9 -3 2
-10 -14 -14 -74 8 -74 27 0 8 -7 21 -15 29 -27 28 -19 42 15 24z m-2177 -7
c-7 -2 -13 -12 -13 -20 0 -9 -3 -14 -6 -10 -10 10 4 37 18 36 10 0 10 -2 1 -6z
m1967 -73 c0 -11 -4 -20 -9 -20 -5 0 -7 9 -4 20 3 11 7 20 9 20 2 0 4 -9 4
-20z m180 1 c0 -4 -3 -10 -6 -14 -8 -7 -33 16 -28 25 6 9 34 -1 34 -11z m47
-16 c14 -10 19 -22 16 -35 -5 -20 17 -50 36 -50 6 0 11 -11 11 -23 0 -15 9
-28 23 -35 22 -10 22 -11 -5 -11 -23 -1 -28 3 -28 24 0 14 -5 25 -11 25 -6 0
-9 -7 -5 -15 8 -21 4 -19 -38 14 -21 17 -57 37 -82 47 -40 15 -42 18 -27 30
15 11 20 11 29 -1 15 -20 64 -38 64 -23 0 6 -7 16 -17 23 -9 7 -14 19 -10 29
8 20 17 20 44 1z m-1134 -12 c-7 -2 -19 -2 -25 0 -7 3 -2 5 12 5 14 0 19 -2
13 -5z m1002 -13 c-3 -5 -12 -10 -18 -10 -7 0 -6 4 3 10 19 12 23 12 15 0z
m-1227 -29 c3 -9 -6 -11 -34 -7 -39 6 -39 6 -6 -4 33 -11 44 -30 17 -30 -8 0
-15 -2 -15 -5 0 -10 40 -45 51 -45 23 0 1 -25 -25 -28 -18 -2 -30 -11 -33 -23
-7 -25 -23 -25 -23 0 0 11 -4 23 -10 26 -5 3 -10 1 -10 -5 0 -6 -5 -8 -11 -5
-6 4 -8 13 -5 20 2 7 -5 16 -17 20 -21 6 -21 7 6 17 28 10 37 28 13 28 -8 0
-16 6 -19 14 -4 10 10 18 46 29 58 17 69 17 75 -2z m189 -16 c7 -20 -2 -29
-21 -22 -9 4 -13 13 -10 22 8 19 23 19 31 0z m-667 -15 c-36 -11 -50 -11 -50
0 0 6 17 10 38 9 33 -1 34 -2 12 -9z m345 1 c3 -5 1 -12 -5 -16 -5 -3 -10 1
-10 9 0 18 6 21 15 7z m1645 -1 c0 -5 -4 -10 -10 -10 -5 0 -10 5 -10 10 0 6 5
10 10 10 6 0 10 -4 10 -10z m-393 -16 c-3 -3 -12 -4 -19 -1 -8 3 -5 6 6 6 11
1 17 -2 13 -5z m404 -13 l43 -20 -27 -10 c-36 -14 -50 -14 -42 -1 4 6 11 8 16
5 5 -4 9 -1 9 5 0 6 -10 8 -23 5 -12 -3 -34 -2 -47 4 -18 7 -20 10 -7 10 9 1
17 6 17 11 0 14 12 13 61 -9z m-1345 -38 c-7 -7 -26 7 -26 19 0 6 6 6 15 -2 9
-7 13 -15 11 -17z m1024 7 c-12 -8 -12 -10 -1 -10 8 0 12 -3 8 -6 -9 -9 -28 6
-22 17 4 5 12 9 18 9 7 0 6 -4 -3 -10z m-1042 -12 c16 -16 15 -31 -2 -25 -8 3
-17 -2 -21 -11 -6 -15 -8 -15 -21 2 -8 11 -14 26 -14 33 0 16 42 17 58 1z
m-460 -177 c2 -107 18 -226 21 -161 1 20 3 22 11 10 8 -12 10 -9 10 13 0 15 5
27 11 27 27 0 93 -120 69 -128 -6 -2 -4 -9 4 -17 10 -11 12 -32 9 -82 -3 -37
-2 -65 2 -61 4 4 17 2 28 -4 20 -10 19 -12 -18 -44 -29 -27 -41 -32 -51 -23
-11 9 -14 8 -14 -5 0 -9 5 -16 10 -16 6 0 10 -10 10 -23 0 -12 9 -40 20 -61
l19 -39 12 29 c11 28 11 28 19 7 8 -18 14 -21 50 -16 51 7 76 -13 85 -68 6
-35 4 -43 -20 -65 -26 -24 -28 -25 -49 -7 -11 10 -23 20 -26 23 -3 3 -17 11
-32 17 -16 7 -28 19 -28 27 0 8 -4 16 -9 18 -14 5 -76 144 -102 231 -13 42
-27 77 -32 77 -5 0 -5 10 -2 21 5 13 3 19 -3 15 -13 -8 -24 55 -17 91 5 21 4
24 -4 13 -7 -10 -10 -1 -9 35 1 28 0 88 -2 135 -4 119 -2 147 13 147 9 0 13
-32 15 -116z m4317 109 c-3 -5 -10 -10 -16 -10 -5 0 -9 5 -9 10 0 6 7 10 16
10 8 0 12 -4 9 -10z m-4050 -69 c-6 -19 -8 -19 -22 -6 -12 13 -13 18 -2 31 16
20 33 3 24 -25z m185 19 c0 -5 -2 -10 -4 -10 -3 0 -8 5 -11 10 -3 6 -1 10 4
10 6 0 11 -4 11 -10z m-20 -100 c8 -5 11 -10 5 -11 -5 0 10 -6 34 -12 46 -12
64 -33 37 -43 -8 -3 -30 6 -49 20 -19 14 -44 26 -56 26 -12 0 -29 7 -37 15
-14 13 -12 15 18 15 18 0 40 -5 48 -10z m-165 -10 c3 -5 1 -10 -4 -10 -6 0
-11 5 -11 10 0 6 2 10 4 10 3 0 8 -4 11 -10z m63 -22 c-3 -7 -11 -13 -18 -13
-7 0 -15 6 -17 13 -3 7 4 12 17 12 13 0 20 -5 18 -12z m1920 -78 c0 -15 -2
-18 -5 -8 -2 10 -10 15 -19 11 -10 -4 -14 3 -14 23 0 23 2 26 10 14 8 -12 10
-10 11 10 l1 25 8 -25 c4 -14 8 -36 8 -50z m-2018 50 c0 -5 -4 -10 -10 -10 -5
0 -10 5 -10 10 0 6 5 10 10 10 6 0 10 -4 10 -10z m259 -34 c13 -15 -4 -26 -38
-26 -10 0 -30 -9 -44 -20 -33 -26 -37 -25 -37 8 0 23 6 30 33 39 47 15 73 15
86 -1z m1338 -17 c2 -16 -1 -19 -9 -11 -5 5 -7 15 -4 21 10 15 12 14 13 -10z
m-1497 -59 c0 -5 -7 -10 -16 -10 -8 0 -12 5 -9 10 3 6 10 10 16 10 5 0 9 -4 9
-10z m40 -106 c0 -7 -5 -16 -11 -20 -14 -8 -44 21 -35 34 8 14 46 3 46 -14z
m155 -156 c-6 -17 12 -45 22 -35 4 5 1 12 -7 17 -13 8 -13 10 1 10 8 0 19 -4
25 -9 5 -5 20 -11 33 -13 14 -1 26 -8 28 -15 3 -8 -17 -11 -66 -11 -38 0 -79
-3 -89 -6 -12 -4 -26 0 -36 9 -18 18 -12 39 8 32 7 -3 19 -1 27 4 8 5 10 9 4
10 -65 6 -67 19 -2 19 41 0 55 -3 52 -12z m129 -64 c9 -3 14 -10 11 -15 -7
-10 -35 0 -35 12 0 11 3 11 24 3z m161 -44 c3 -5 -1 -10 -9 -10 -9 0 -16 -7
-16 -15 0 -8 -7 -15 -16 -15 -8 0 -13 3 -11 8 2 4 7 15 10 25 7 19 32 23 42 7z
m1215 -87 c0 -5 -5 -15 -10 -23 -8 -12 -10 -11 -10 8 0 12 5 22 10 22 6 0 10
-3 10 -7z m-110 -127 c0 -3 -4 -8 -10 -11 -5 -3 -10 -1 -10 4 0 6 5 11 10 11
6 0 10 -2 10 -4z m40 -35 c0 -4 -8 -7 -19 -7 -12 0 -17 6 -13 18 3 14 7 16 18
7 8 -6 14 -14 14 -18z m80 14 c0 -8 -4 -15 -10 -15 -5 0 -10 7 -10 15 0 8 5
15 10 15 6 0 10 -7 10 -15z m37 -17 c-3 -8 -6 -5 -6 6 -1 11 2 17 5 13 3 -3 4
-12 1 -19z m1694 4 c-5 -9 -19 -26 -32 -37 -17 -15 -15 -10 7 17 32 41 40 48
25 20z m-1441 -37 c0 -8 -2 -15 -4 -15 -2 0 -6 7 -10 15 -3 8 -1 15 4 15 6 0
10 -7 10 -15z m-1980 -127 c-1 -37 -51 -46 -64 -11 -3 8 -1 11 4 8 6 -3 10 -1
10 4 0 6 11 11 25 11 14 0 25 -6 25 -12z m80 -62 c0 -8 -13 -24 -29 -35 -32
-23 -46 -27 -35 -9 4 7 3 8 -4 4 -7 -4 -12 -14 -12 -22 0 -16 -26 -19 -35 -4
-10 16 -26 12 -23 -6 4 -22 -18 -29 -25 -9 -10 26 3 46 27 40 11 -2 15 -2 9 1
-21 10 -15 21 18 33 26 9 34 8 43 -5 10 -14 14 -13 30 5 22 24 36 27 36 7z
m3845 -17 c11 -11 0 -11 -44 -3 -17 4 -31 11 -31 16 0 11 60 1 75 -13z m305
-53 c0 -23 -38 -81 -47 -72 -7 7 28 96 38 96 5 0 9 -11 9 -24z m-4086 -21 c9
-14 14 -25 11 -25 -8 0 -45 34 -45 42 0 16 18 7 34 -17z m74 13 c-5 -15 -35
-34 -43 -27 -3 4 -3 14 1 23 7 18 48 23 42 4z m-901 -40 c-3 -8 -6 -5 -6 6 -1
11 2 17 5 13 3 -3 4 -12 1 -19z m641 -12 c-7 -8 -15 -12 -17 -11 -5 6 10 25
20 25 5 0 4 -6 -3 -14z m-680 -50 c3 -12 -1 -17 -10 -14 -7 3 -15 13 -16 22
-3 12 1 17 10 14 7 -3 15 -13 16 -22z m747 3 c-3 -8 -15 -21 -28 -28 -21 -14
-21 -13 -7 5 36 45 46 52 35 23z m-1078 -25 c-3 -3 -12 -4 -19 -1 -8 3 -5 6 6
6 11 1 17 -2 13 -5z m5253 -6 c0 -7 -5 -20 -10 -28 -8 -12 -10 -9 -10 13 0 15
5 27 10 27 6 0 10 -6 10 -12z m-5308 -9 c2 -5 27 -11 56 -11 63 -2 70 -18 8
-18 -24 0 -52 -3 -62 -7 -13 -5 -16 -3 -11 10 4 10 0 20 -11 26 -16 10 -16 10
0 11 9 0 18 -5 20 -11z m839 -57 c-5 -10 -7 -30 -4 -45 4 -21 1 -27 -12 -27
-14 0 -16 7 -11 41 7 47 14 62 27 54 5 -4 5 -13 0 -23z m4719 -3 c0 -5 -4 -9
-10 -9 -5 0 -10 7 -10 16 0 8 5 12 10 9 6 -3 10 -10 10 -16z m-2970 -10 c0 -4
-7 -6 -15 -3 -8 4 -15 10 -15 15 0 4 7 6 15 3 8 -4 15 -10 15 -15z m3043 5 c8
-9 -11 -44 -24 -44 -6 0 -6 6 0 19 6 10 7 21 4 25 -3 3 -2 6 4 6 5 0 13 -3 16
-6z m-3878 -14 c-12 -20 5 -29 35 -18 33 11 80 4 80 -12 0 -6 -11 -10 -25 -10
-18 0 -25 -5 -25 -20 0 -26 -16 -26 -23 0 -4 16 -11 19 -36 14 -48 -10 -63 0
-49 31 6 14 20 25 30 25 11 0 16 -4 13 -10z m-1170 -20 c-3 -5 -13 -10 -21
-10 -8 0 -14 5 -14 10 0 6 9 10 21 10 11 0 17 -4 14 -10z m-11 -51 c-3 -5 -13
-9 -22 -9 -13 0 -13 -2 4 -15 18 -15 18 -16 -5 -13 -30 4 -40 54 -13 61 20 4
44 -12 36 -24z m4744 -19 c4 0 7 -12 6 -27 -1 -34 -28 -38 -32 -5 -2 12 -8 22
-13 22 -5 0 -9 11 -9 25 l0 25 20 -20 c11 -11 24 -20 28 -20z m159 34 c-3 -3
-12 -4 -19 -1 -8 3 -5 6 6 6 11 1 17 -2 13 -5z m-2730 -26 c-3 -8 -6 -5 -6 6
-1 11 2 17 5 13 3 -3 4 -12 1 -19z m-1002 -41 c-8 -4 -15 -15 -15 -23 0 -14
-27 -62 -40 -74 -4 -3 -9 -13 -13 -22 -9 -24 -23 -23 -30 3 -4 16 6 33 38 66
24 24 47 54 51 65 5 16 8 18 15 7 5 -9 3 -17 -6 -22z m172 27 c-3 -3 -12 -4
-19 -1 -8 3 -5 6 6 6 11 1 17 -2 13 -5z m3273 -4 c0 -5 -7 -10 -16 -10 -8 0
-12 5 -9 10 3 6 10 10 16 10 5 0 9 -4 9 -10z m-3553 -16 c3 -8 12 -13 20 -10
11 4 11 1 3 -14 -6 -11 -15 -20 -21 -20 -6 0 -7 5 -4 11 4 5 -1 19 -11 30 -10
11 -12 19 -5 19 6 0 14 -7 18 -16z m-1517 -10 c0 -2 -7 -4 -15 -4 -8 0 -15 4
-15 10 0 5 7 7 15 4 8 -4 15 -8 15 -10z m65 6 c-3 -5 -14 -10 -23 -10 -15 0
-15 2 -2 10 20 13 33 13 25 0z m678 4 c9 -3 12 -14 9 -30 -4 -23 -5 -23 -18
-7 -13 17 -19 43 -10 43 2 0 11 -2 19 -6z m3297 -47 c0 -10 -4 -15 -10 -12 -5
3 -10 18 -10 33 0 21 2 24 10 12 5 -8 10 -23 10 -33z m-3595 23 c-3 -5 -10
-10 -16 -10 -5 0 -9 5 -9 10 0 6 7 10 16 10 8 0 12 -4 9 -10z m-60 -10 c3 -5
1 -10 -4 -10 -6 0 -11 5 -11 10 0 6 2 10 4 10 3 0 8 -4 11 -10z m1399 -74 c-3
-9 -10 -16 -15 -16 -6 0 -5 9 1 21 13 24 24 20 14 -5z m3733 8 c-3 -3 -12 -4
-19 -1 -8 3 -5 6 6 6 11 1 17 -2 13 -5z m-5585 -44 c19 -33 43 -32 51 2 5 19
7 19 22 4 9 -9 23 -16 31 -16 8 0 14 -10 14 -22 0 -13 3 -34 7 -47 4 -16 3
-22 -5 -18 -6 4 -16 -6 -24 -23 -9 -21 -20 -30 -35 -30 -27 0 -30 -15 -7 -24
15 -6 15 -9 -3 -29 -10 -12 -27 -35 -37 -50 -9 -15 -25 -31 -34 -34 -9 -4 -21
-11 -25 -17 -4 -6 -5 3 -1 19 4 17 15 41 26 54 26 34 23 41 -17 34 -23 -4 -35
-2 -35 6 0 6 7 11 15 11 17 0 20 16 5 25 -12 7 -4 25 11 25 6 0 8 -4 5 -9 -3
-4 2 -16 12 -24 17 -15 19 -15 35 4 10 11 15 24 12 29 -3 5 10 16 30 24 35 15
42 26 28 40 -5 4 -8 13 -8 19 0 5 -6 12 -14 15 -10 3 -12 0 -8 -12 5 -11 1
-16 -13 -16 -10 0 -22 -5 -25 -11 -5 -7 -13 -4 -25 8 -13 13 -15 21 -7 32 9
10 7 16 -6 26 -20 14 -23 47 -4 40 6 -3 20 -19 29 -35z m225 34 c-3 -3 -12 -4
-19 -1 -8 3 -5 6 6 6 11 1 17 -2 13 -5z m396 -11 c-8 -20 -28 -43 -38 -43 -4
0 -5 10 -3 23 2 12 9 21 16 20 6 -2 12 2 12 7 0 6 4 10 10 10 5 0 6 -8 3 -17z
m-190 0 c-7 -2 -19 -2 -25 0 -7 3 -2 5 12 5 14 0 19 -2 13 -5z m1276 -33 c0
-10 -3 -8 -9 5 -12 27 -12 43 0 25 5 -8 9 -22 9 -30z m185 18 c-7 -23 -6 -23
15 -4 21 19 21 19 21 -1 0 -11 -11 -29 -25 -41 -26 -23 -33 -58 -13 -64 8 -3
8 -11 -1 -33 -9 -25 -10 -26 -7 -5 l5 25 -19 -25 c-17 -21 -20 -22 -20 -6 0
11 -5 16 -13 13 -18 -7 -19 27 -1 61 7 15 14 23 14 17 0 -17 27 29 34 58 3 15
9 27 12 27 3 0 2 -10 -2 -22z m-1592 -8 l22 -20 -22 0 c-12 0 -22 2 -22 4 0 2
-3 11 -6 20 -8 22 2 20 28 -4z m1743 -24 c0 -38 -7 -49 -35 -53 -15 -2 -21 5
-26 31 -6 36 1 60 16 51 5 -3 11 -1 15 4 12 20 30 0 30 -33z m3540 34 c3 -6
-1 -7 -9 -4 -18 7 -21 14 -7 14 6 0 13 -4 16 -10z m-3916 -22 c1 6 6 12 11 12
6 0 8 -11 4 -26 -5 -18 -3 -25 4 -20 6 4 8 -2 4 -16 -5 -19 -7 -20 -10 -5 -5
22 -22 12 -22 -14 0 -10 -4 -19 -9 -19 -15 0 -24 41 -12 53 6 6 11 22 12 37 0
23 1 23 9 5 5 -11 9 -14 9 -7z m58 0 c-3 -8 -6 -5 -6 6 -1 11 2 17 5 13 3 -3
4 -12 1 -19z m3583 -25 c0 -7 -4 -13 -9 -13 -10 0 -21 25 -21 48 1 15 3 14 15
-2 8 -11 15 -26 15 -33z m250 14 c0 -4 -9 -3 -20 3 -11 6 -20 15 -20 20 0 6 9
5 20 -2 11 -7 20 -16 20 -21z m-3989 -6 c7 11 9 10 9 -3 0 -10 6 -18 13 -18 8
0 7 -4 -3 -10 -26 -17 -40 -11 -39 18 0 15 3 21 6 13 5 -11 7 -11 14 0z
m-2031 -16 c0 -8 -7 -15 -15 -15 -16 0 -20 12 -8 23 11 12 23 8 23 -8z m2214
3 c5 -10 7 -10 12 0 12 26 21 1 14 -40 -5 -23 -6 -48 -3 -55 3 -7 -5 -17 -18
-22 -31 -11 -42 -4 -29 19 13 24 -3 35 -20 15 -7 -8 -18 -15 -24 -15 -7 0 -7
3 -1 8 15 11 45 68 45 86 0 19 16 21 24 4z m-2147 -28 c-14 -36 -27 -39 -27
-7 0 26 7 37 26 37 9 0 10 -7 1 -30z m718 20 c-3 -5 -10 -10 -16 -10 -5 0 -9
5 -9 10 0 6 7 10 16 10 8 0 12 -4 9 -10z m-910 -27 c-12 -8 -23 -9 -28 -4 -15
15 1 30 24 24 21 -6 21 -7 4 -20z m4732 -15 c-3 -8 -6 -5 -6 6 -1 11 2 17 5
13 3 -3 4 -12 1 -19z m1159 -5 c-10 -10 -19 5 -10 18 6 11 8 11 12 0 2 -7 1
-15 -2 -18z m-3619 -15 c-3 -8 -6 -5 -6 6 -1 11 2 17 5 13 3 -3 4 -12 1 -19z
m359 0 c-3 -13 -6 -36 -6 -51 0 -24 -2 -26 -13 -15 -8 7 -13 25 -11 38 1 14 3
31 3 38 1 6 8 12 17 12 12 0 15 -6 10 -22z m3489 12 c-3 -5 -14 -10 -23 -10
-15 0 -15 2 -2 10 20 13 33 13 25 0z m-5309 -29 c-4 -5 0 -12 6 -14 7 -3 3 -6
-9 -6 -14 -1 -23 5 -23 14 0 8 7 15 16 15 8 0 13 -4 10 -9z m2305 -5 c5 3 9
-1 9 -9 0 -8 -7 -17 -15 -21 -17 -6 -18 -49 -3 -83 7 -15 6 -33 -4 -63 l-13
-41 -28 25 c-15 14 -27 30 -27 36 0 12 -40 -6 -52 -24 -16 -25 -19 6 -4 39 9
19 14 40 10 46 -8 14 33 56 73 76 18 8 33 20 34 27 0 7 2 6 6 -2 2 -6 9 -10
14 -6z m-3011 -26 c0 -5 -5 -10 -11 -10 -5 0 -7 5 -4 10 3 6 8 10 11 10 2 0 4
-4 4 -10z m2669 -37 c0 -25 -1 -25 -8 -8 -5 11 -7 23 -4 28 8 14 13 7 12 -20z
m3565 12 c20 -15 20 -15 0 -15 -15 0 -16 -2 -4 -10 24 -15 2 -24 -25 -10 -19
10 -22 17 -14 31 12 23 18 23 43 4z m-6087 -1 c-3 -3 -12 -4 -19 -1 -8 3 -5 6
6 6 11 1 17 -2 13 -5z m2200 -16 c-3 -8 -6 -5 -6 6 -1 11 2 17 5 13 3 -3 4
-12 1 -19z m1010 -10 c-3 -8 -6 -5 -6 6 -1 11 2 17 5 13 3 -3 4 -12 1 -19z
m-10 -50 c-3 -7 -5 -2 -5 12 0 14 2 19 5 13 2 -7 2 -19 0 -25z m-3197 12 c0
-5 -9 -10 -19 -10 -11 0 -23 5 -26 10 -4 6 5 10 19 10 14 0 26 -4 26 -10z
m5950 -5 c0 -8 -7 -15 -15 -15 -8 0 -15 7 -15 15 0 8 7 15 15 15 8 0 15 -7 15
-15z m-6013 -17 c28 -13 43 -26 43 -40 0 -4 -20 2 -45 14 -63 31 -61 53 2 26z
m-135 -90 c-16 -16 -37 4 -28 28 6 16 8 16 23 1 13 -13 15 -19 5 -29z m-48
-16 c3 -5 18 -7 34 -4 34 5 40 -5 49 -88 5 -53 4 -57 -16 -63 -17 -4 -24 0
-31 17 -12 31 -30 43 -68 44 -28 1 -33 -2 -29 -18 7 -29 -8 -44 -37 -36 -27 7
-36 25 -13 28 6 0 -8 4 -33 8 -45 6 -45 6 -17 18 15 6 27 17 27 23 0 6 7 26
16 45 15 32 19 34 65 34 26 0 50 -4 53 -8z m6026 -32 c0 -5 -4 -10 -9 -10 -5
0 -12 -13 -16 -29 -5 -22 -10 -28 -25 -24 -11 3 -17 9 -14 14 3 5 10 6 16 3 7
-4 8 -2 4 4 -4 6 1 20 11 31 20 22 33 26 33 11z m-2601 -47 l-1 -48 -10 34
c-5 18 -7 40 -4 47 10 27 16 14 15 -33z m2451 10 c0 -5 -4 -15 -10 -23 -11
-18 -25 -7 -17 15 6 15 27 21 27 8z m-5570 -28 c15 -29 16 -81 0 -99 -5 -8 -8
-21 -4 -30 3 -9 3 -32 -1 -52 -6 -36 -7 -36 -22 -15 -10 15 -13 32 -8 49 4 15
7 39 6 55 0 15 4 27 10 27 6 0 3 7 -5 16 -20 19 -21 74 -3 74 8 0 20 -11 27
-25z m-178 0 c0 -5 -5 -11 -11 -13 -6 -2 -11 4 -11 13 0 9 5 15 11 13 6 -2 11
-8 11 -13z m5827 -24 c11 -7 6 -12 -20 -19 -35 -9 -53 3 -28 19 18 11 30 11
48 0z m15 -120 c3 -5 -8 -11 -25 -13 -29 -5 -45 3 -32 16 9 9 51 7 57 -3z
m-2199 -11 c3 -5 1 -10 -4 -10 -6 0 -11 5 -11 10 0 6 2 10 4 10 3 0 8 -4 11
-10z m35 0 c0 -5 -4 -10 -10 -10 -5 0 -10 5 -10 10 0 6 5 10 10 10 6 0 10 -4
10 -10z m2233 -31 c-8 -8 -6 -20 7 -45 11 -19 14 -31 7 -28 -7 2 -17 -4 -24
-15 -10 -15 -9 -22 2 -31 15 -12 12 -30 -5 -30 -5 0 -26 16 -48 36 -42 38 -60
74 -37 74 8 0 22 11 32 25 12 16 28 24 48 25 21 0 26 -3 18 -11z m-2563 -56
c0 -14 -16 -18 -23 -5 -2 4 -7 21 -11 37 l-7 30 21 -25 c11 -14 20 -31 20 -37z
m-3600 6 c0 -5 -12 -9 -27 -9 -27 1 -27 1 -9 15 19 14 36 12 36 -6z m130 -4
c7 -9 11 -17 9 -18 -2 -1 -19 -13 -37 -25 -31 -22 -62 -24 -62 -4 0 5 14 15
30 22 17 7 30 19 30 26 0 18 14 18 30 -1z m5964 -66 c5 -5 -3 -13 -19 -19 -23
-9 -32 -8 -44 5 -14 14 -14 17 -1 25 15 10 48 4 64 -11z m-5757 -93 c-4 -9
-11 -16 -16 -16 -13 0 -24 37 -15 51 10 16 38 -16 31 -35z m5523 -66 c0 -5 -4
-10 -10 -10 -5 0 -10 5 -10 10 0 6 5 10 10 10 6 0 10 -4 10 -10z m160 -40 c0
-5 -9 -10 -20 -10 -11 0 -20 5 -20 10 0 6 9 10 20 10 11 0 20 -4 20 -10z
m-4810 -160 c-24 -15 -36 -11 -14 4 10 8 21 12 24 10 2 -3 -2 -9 -10 -14z
m-156 -5 c-4 -8 -8 -15 -10 -15 -2 0 -4 7 -4 15 0 8 4 15 10 15 5 0 7 -7 4
-15z m6 -52 c-11 -17 -11 -17 -6 0 3 10 7 26 7 35 1 15 2 15 6 0 2 -10 -1 -25
-7 -35z m4800 -103 c0 -5 -9 -10 -21 -10 -11 0 -17 5 -14 10 3 6 13 10 21 10
8 0 14 -4 14 -10z m-4575 -19 c3 -5 1 -12 -5 -16 -5 -3 -10 1 -10 9 0 18 6 21
15 7z m4242 -727 c-3 -3 -12 -4 -19 -1 -8 3 -5 6 6 6 11 1 17 -2 13 -5z m-67
-84 c0 -5 -2 -10 -4 -10 -3 0 -8 5 -11 10 -3 6 -1 10 4 10 6 0 11 -4 11 -10z
m-3303 -956 c-3 -3 -12 -4 -19 -1 -8 3 -5 6 6 6 11 1 17 -2 13 -5z m1902 -141
c0 -21 -3 -33 -5 -26 -3 7 -12 9 -20 6 -18 -6 -19 28 -2 45 20 20 28 13 27
-25z m-2360 -57 c6 -7 9 -24 7 -37 -3 -13 -5 -27 -5 -30 -1 -4 -12 -9 -26 -11
-20 -4 -23 -2 -15 7 6 7 8 25 4 38 -10 41 12 61 35 33z m1811 -27 c0 -5 -4 -9
-10 -9 -5 0 -10 7 -10 16 0 8 5 12 10 9 6 -3 10 -10 10 -16z m300 -213 c0 -8
-4 -18 -10 -21 -5 -3 -10 3 -10 14 0 12 5 21 10 21 6 0 10 -6 10 -14z m-260
-26 c0 -5 -4 -10 -10 -10 -5 0 -10 5 -10 10 0 6 5 10 10 10 6 0 10 -4 10 -10z
m450 -110 c0 -5 -2 -10 -4 -10 -3 0 -8 5 -11 10 -3 6 -1 10 4 10 6 0 11 -4 11
-10z m370 -84 c0 -3 -4 -8 -10 -11 -5 -3 -10 -1 -10 4 0 6 5 11 10 11 6 0 10
-2 10 -4z m-15 -35 c3 -5 1 -12 -5 -16 -5 -3 -10 1 -10 9 0 18 6 21 15 7z
m983 -470 c17 -12 37 -32 43 -43 10 -18 9 -20 -7 -14 -11 5 -23 9 -29 10 -35
7 -55 29 -55 59 0 18 4 27 8 22 4 -6 22 -21 40 -34z m162 -70 l43 -31 -36 0
c-44 0 -90 17 -82 29 3 5 -5 17 -17 26 -23 17 -23 17 13 12 21 -3 56 -19 79
-36z m-196 -93 c9 -12 16 -30 16 -39 0 -9 7 -29 15 -45 8 -15 12 -30 10 -33
-10 -10 -45 33 -45 56 0 12 -5 23 -10 23 -7 0 -6 8 1 23 11 20 11 21 -4 8 -10
-7 -17 -11 -17 -8 0 3 -3 12 -6 21 -9 25 22 20 40 -6z m126 12 c0 -5 -2 -10
-4 -10 -3 0 -8 5 -11 10 -3 6 -1 10 4 10 6 0 11 -4 11 -10z m483 -32 c15 -7
27 -19 27 -25 0 -7 7 -13 16 -13 8 0 12 -4 9 -10 -3 -5 0 -10 7 -10 8 0 31 -9
53 -20 22 -11 52 -20 67 -20 15 0 28 -2 28 -4 0 -2 7 -19 15 -38 l14 -35 -39
0 c-40 0 -78 26 -66 45 7 13 -67 12 -75 0 -3 -5 -34 -10 -68 -11 -36 -1 -65
-7 -69 -14 -12 -19 -45 24 -36 45 7 16 7 16 11 0 3 -11 12 -15 31 -13 15 2 45
4 67 5 l40 2 -42 10 c-44 9 -54 21 -28 32 9 3 18 -1 21 -9 4 -8 15 -15 25 -15
28 0 25 38 -3 42 -14 2 -24 11 -26 23 -2 11 -11 26 -20 33 -13 10 -14 12 -1
12 8 0 27 -6 42 -12z m-812 -80 c19 -21 26 -54 10 -44 -5 3 -12 -2 -15 -11 -6
-14 -9 -15 -16 -3 -7 11 -11 11 -23 1 -23 -18 -27 0 -9 42 19 43 28 45 53 15z
m1066 -24 c-3 -3 -12 -4 -19 -1 -8 3 -5 6 6 6 11 1 17 -2 13 -5z m-287 -54 c0
-5 -4 -10 -10 -10 -5 0 -10 5 -10 10 0 6 5 10 10 10 6 0 10 -4 10 -10z m-520
-114 c0 -24 -18 -28 -30 -6 -9 17 -8 20 10 20 11 0 20 -6 20 -14z m840 -6 c0
-5 -4 -10 -10 -10 -5 0 -10 5 -10 10 0 6 5 10 10 10 6 0 10 -4 10 -10z m-50
-40 c0 -5 -5 -10 -11 -10 -5 0 -7 5 -4 10 3 6 8 10 11 10 2 0 4 -4 4 -10z
m-758 -58 c-15 -5 -16 -23 0 -19 9 2 15 -73 9 -122 -1 -3 -8 4 -16 15 -14 18
-15 18 -8 0 4 -13 2 -17 -8 -14 -7 2 -18 22 -23 44 -5 21 -11 41 -13 44 -7 8
-23 -24 -23 -47 0 -40 -20 -35 -41 11 -18 42 -19 49 -5 74 8 15 18 36 21 47 8
22 10 17 20 -37 3 -24 11 -38 20 -38 15 0 28 35 25 61 -6 39 1 43 27 15 17
-19 23 -31 15 -34z m803 27 c12 -18 -3 -22 -20 -5 -14 14 -14 16 -1 16 8 0 18
-5 21 -11z m91 -19 c15 -6 24 -13 21 -16 -8 -9 -67 6 -67 17 0 12 12 11 46 -1z
m49 -50 c3 -6 -1 -7 -9 -4 -18 7 -21 14 -7 14 6 0 13 -4 16 -10z m-905 -16 c0
-8 -4 -12 -10 -9 -5 3 -10 10 -10 16 0 5 5 9 10 9 6 0 10 -7 10 -16z m917 -79
c9 -24 -1 -27 -15 -5 -8 13 -8 20 -2 20 6 0 13 -7 17 -15z m43 -15 c0 -5 -5
-10 -11 -10 -5 0 -7 5 -4 10 3 6 8 10 11 10 2 0 4 -4 4 -10z m45 -10 c3 -5 1
-10 -4 -10 -6 0 -11 5 -11 10 0 6 2 10 4 10 3 0 8 -4 11 -10z m-87 -35 c-3 -3
-9 2 -12 12 -6 14 -5 15 5 6 7 -7 10 -15 7 -18z m37 -5 c-3 -5 -11 -10 -16
-10 -6 0 -7 5 -4 10 3 6 11 10 16 10 6 0 7 -4 4 -10z"/>
<path d="M3560 9860 c0 -5 5 -10 10 -10 6 0 10 5 10 10 0 6 -4 10 -10 10 -5 0
-10 -4 -10 -10z"/>
<path d="M8000 8951 c0 -6 4 -13 10 -16 6 -3 7 1 4 9 -7 18 -14 21 -14 7z"/>
<path d="M8046 8847 c3 -10 9 -15 12 -12 3 3 0 11 -7 18 -10 9 -11 8 -5 -6z"/>
<path d="M8151 8524 c0 -11 3 -14 6 -6 3 7 2 16 -1 19 -3 4 -6 -2 -5 -13z"/>
<path d="M8160 8481 c0 -11 4 -22 9 -25 4 -3 6 6 3 19 -5 30 -12 33 -12 6z"/>
<path d="M5114 5318 c-4 -7 -15 -24 -23 -38 -10 -15 -11 -21 -3 -16 13 7 46
66 38 66 -3 0 -8 -6 -12 -12z"/>
<path d="M2118 5103 c7 -3 16 -2 19 1 4 3 -2 6 -13 5 -11 0 -14 -3 -6 -6z"/>
<path d="M8087 4849 c-16 -29 -14 -61 3 -42 8 8 24 73 18 73 -2 0 -11 -14 -21
-31z"/>
<path d="M6495 9690 c-8 -12 20 -24 35 -15 5 3 10 10 10 16 0 12 -37 12 -45
-1z"/>
<path d="M6465 9680 c-3 -5 -1 -10 4 -10 6 0 11 5 11 10 0 6 -2 10 -4 10 -3 0
-8 -4 -11 -10z"/>
<path d="M6792 9668 c3 -7 13 -15 24 -17 16 -3 17 -1 5 13 -16 19 -34 21 -29
4z"/>
<path d="M6240 9534 c0 -8 5 -12 10 -9 6 4 8 11 5 16 -9 14 -15 11 -15 -7z"/>
<path d="M2997 9487 c-52 -52 -127 -179 -127 -213 0 -16 2 -16 19 2 10 11 31
40 46 65 16 24 31 46 34 49 11 9 78 115 84 133 10 27 -1 21 -56 -36z"/>
<path d="M6130 9419 c0 -5 5 -7 10 -4 6 3 10 8 10 11 0 2 -4 4 -10 4 -5 0 -10
-5 -10 -11z"/>
<path d="M4072 9377 c-27 -29 -28 -37 -2 -37 12 0 34 14 50 30 l29 30 -28 0
c-16 0 -37 -10 -49 -23z"/>
<path d="M4333 9394 c11 -11 89 -15 82 -4 -3 5 -25 10 -47 10 -23 0 -38 -3
-35 -6z"/>
<path d="M6070 9380 c0 -5 4 -10 9 -10 6 0 13 5 16 10 3 6 -1 10 -9 10 -9 0
-16 -4 -16 -10z"/>
<path d="M7060 9380 c0 -27 12 -60 21 -60 5 0 6 12 3 28 -8 31 -24 54 -24 32z"/>
<path d="M4595 9330 c3 -5 12 -10 19 -10 7 0 30 -13 52 -30 21 -16 51 -30 66
-30 15 0 30 -4 33 -10 11 -18 56 -11 75 12 14 18 21 20 32 10 8 -6 18 -9 21
-6 11 11 81 13 93 4 6 -6 24 -6 45 0 18 6 58 10 86 10 29 0 53 5 53 10 0 6
-64 10 -172 10 -132 0 -198 5 -276 20 -116 23 -136 24 -127 10z"/>
<path d="M5985 9330 c-8 -13 20 -24 40 -16 8 3 15 10 15 16 0 13 -47 13 -55 0z"/>
<path d="M3800 8990 c0 -11 5 -20 10 -20 6 0 10 9 10 20 0 11 -4 20 -10 20 -5
0 -10 -9 -10 -20z"/>
<path d="M5390 8620 c0 -11 5 -20 10 -20 6 0 10 9 10 20 0 11 -4 20 -10 20 -5
0 -10 -9 -10 -20z"/>
<path d="M4937 8623 c-11 -10 -8 -45 2 -38 6 3 9 14 8 25 -1 23 -1 22 -10 13z"/>
<path d="M5330 8621 c0 -6 -5 -10 -11 -8 -6 1 -13 -3 -16 -9 -4 -13 44 -16 52
-4 3 4 -2 13 -10 20 -10 9 -15 9 -15 1z"/>
<path d="M6211 8599 c-8 -19 -18 -28 -27 -25 -9 3 -14 -2 -14 -14 0 -21 -20
-28 -20 -7 0 7 -7 4 -15 -7 -11 -14 -15 -16 -15 -5 -1 8 -8 1 -16 -14 -10 -18
-21 -26 -30 -23 -8 3 -14 1 -14 -4 0 -17 -40 -51 -52 -44 -7 5 -9 2 -5 -9 3
-9 2 -19 -3 -22 -6 -4 -10 -13 -10 -22 0 -11 7 -14 25 -11 13 3 22 2 20 -3 -3
-4 12 -6 32 -4 44 3 72 -22 74 -64 1 -17 3 -20 6 -8 2 9 13 17 23 17 11 0 17
-7 16 -17 0 -10 4 -17 10 -16 8 1 10 -6 6 -19 -3 -14 -1 -19 6 -14 7 4 12 15
12 24 1 12 4 10 14 -7 13 -23 14 -24 19 -5 3 10 3 -2 0 -28 -3 -32 -2 -48 6
-48 7 0 9 9 5 25 -9 38 10 30 30 -12 14 -29 20 -34 27 -22 5 8 8 21 8 29 0 10
-3 8 -9 -5 -7 -16 -9 -17 -9 -3 -1 26 16 31 32 8 7 -11 17 -17 20 -13 4 3 7
-1 7 -9 0 -9 -5 -18 -11 -20 -9 -3 -9 -10 0 -27 8 -14 18 -20 28 -17 9 4 17
-1 20 -14 4 -16 9 -18 24 -9 13 6 19 6 19 -1 0 -5 -6 -10 -12 -10 -10 0 -9 -3
1 -9 8 -5 11 -16 6 -30 -7 -24 19 -59 30 -41 5 7 11 8 19 1 7 -6 17 -6 26 -1
21 14 68 12 72 -2 3 -8 11 -7 27 4 26 18 60 13 78 -13 9 -12 22 -16 43 -13 25
4 32 1 39 -18 6 -13 10 -16 11 -8 0 12 2 12 9 2 7 -11 9 -11 13 0 9 22 -34 94
-54 90 -9 -2 -19 2 -23 7 -3 6 -17 11 -30 11 -13 0 -30 9 -39 21 -13 20 -14
20 -19 2 -4 -15 -5 -15 -6 3 -1 21 -41 43 -41 23 0 -20 -20 -7 -21 14 -1 16
-2 18 -6 5 -4 -16 -23 -26 -23 -12 0 11 23 49 34 56 7 5 7 8 -2 8 -9 0 -13 12
-12 38 3 61 1 74 -12 66 -7 -5 -8 -3 -4 5 12 19 -24 51 -57 51 -31 0 -32 3
-11 69 5 17 4 22 -4 17 -14 -8 -27 36 -19 65 6 23 -1 49 -13 49 -5 0 -10 -10
-12 -22 -2 -15 -9 -22 -18 -19 -8 2 -28 3 -44 2 -19 -1 -36 6 -49 20 -13 14
-22 18 -25 11 -7 -22 -23 -12 -17 11 6 17 2 16 -17 -10 l-24 -31 -12 28 c-7
15 -10 40 -6 54 8 35 2 33 -15 -5z"/>
<path d="M4830 8609 c0 -5 5 -7 10 -4 6 3 10 8 10 11 0 2 -4 4 -10 4 -5 0 -10
-5 -10 -11z"/>
<path d="M4152 8594 l-23 -11 23 -6 c25 -7 41 3 30 19 -5 7 -14 7 -30 -2z"/>
<path d="M4356 8570 c-5 -13 -14 -30 -22 -37 -15 -15 -64 -18 -64 -3 0 6 -11
10 -25 10 -22 0 -25 -4 -25 -35 0 -19 -5 -35 -11 -35 -6 0 -8 9 -4 20 9 28
-16 26 -43 -3 -28 -29 -16 -56 16 -36 17 11 24 11 34 1 6 -6 18 -12 25 -12 18
0 53 -32 47 -42 -3 -4 -14 -8 -25 -8 -11 0 -22 -7 -25 -15 -4 -8 -13 -15 -20
-15 -8 0 -25 -7 -37 -14 -25 -17 -87 -18 -87 -3 0 5 8 16 18 23 13 10 14 15 5
25 -20 20 -27 3 -29 -69 -3 -64 -4 -68 -36 -89 -18 -12 -37 -22 -43 -22 -5 -1
-27 -6 -47 -12 -29 -7 -39 -16 -44 -37 -4 -15 -12 -34 -19 -42 -19 -22 -28
-60 -16 -60 6 0 10 -12 9 -27 -4 -56 2 -93 15 -93 6 0 23 14 37 32 63 81 113
128 135 128 24 0 54 37 56 67 0 11 3 13 6 6 8 -21 25 -14 18 7 -4 14 -1 22 12
27 9 4 28 19 40 33 17 21 162 104 183 105 3 0 13 5 24 11 16 10 17 18 9 65 -6
37 -13 54 -23 54 -10 0 -18 18 -26 60 -8 51 -11 56 -18 35z"/>
<path d="M4770 8575 c0 -8 5 -15 10 -15 6 0 10 7 10 15 0 8 -4 15 -10 15 -5 0
-10 -7 -10 -15z"/>
<path d="M4260 8570 c0 -5 5 -10 10 -10 6 0 10 5 10 10 0 6 -4 10 -10 10 -5 0
-10 -4 -10 -10z"/>
<path d="M5390 8570 c0 -5 5 -10 10 -10 6 0 10 5 10 10 0 6 -4 10 -10 10 -5 0
-10 -4 -10 -10z"/>
<path d="M4706 8551 c-4 -6 -14 -8 -24 -5 -14 5 -14 4 1 -6 14 -9 22 -9 30 -1
6 6 8 13 5 16 -3 4 -9 2 -12 -4z"/>
<path d="M4106 8541 c-4 -5 0 -11 6 -14 10 -3 10 -7 -1 -20 -7 -10 -9 -17 -4
-17 11 0 53 42 53 53 0 10 -48 8 -54 -2z"/>
<path d="M4491 8474 c0 -11 3 -14 6 -6 3 7 2 16 -1 19 -3 4 -6 -2 -5 -13z"/>
<path d="M4761 8454 c0 -11 3 -14 6 -6 3 7 2 16 -1 19 -3 4 -6 -2 -5 -13z"/>
<path d="M4548 8453 c7 -3 16 -2 19 1 4 3 -2 6 -13 5 -11 0 -14 -3 -6 -6z"/>
<path d="M4975 8420 c-3 -5 1 -10 9 -10 8 0 18 5 21 10 3 6 -1 10 -9 10 -8 0
-18 -4 -21 -10z"/>
<path d="M4667 8254 c-11 -11 3 -24 18 -18 8 4 12 10 9 15 -6 11 -18 12 -27 3z"/>
<path d="M5667 8227 c-5 -21 -10 -46 -13 -55 -3 -9 2 -4 11 11 9 15 15 40 13
55 -3 24 -4 23 -11 -11z"/>
<path d="M5635 8221 c-3 -5 -1 -12 5 -16 5 -3 10 1 10 9 0 18 -6 21 -15 7z"/>
<path d="M5540 8140 c0 -5 5 -10 10 -10 6 0 10 5 10 10 0 6 -4 10 -10 10 -5 0
-10 -4 -10 -10z"/>
<path d="M5516 8115 c-5 -13 -10 -16 -13 -7 -3 6 -9 12 -14 12 -5 0 -4 -11 1
-26 6 -14 8 -29 5 -34 -3 -4 2 -11 11 -14 13 -5 15 -1 10 21 l-7 28 21 -30
c11 -16 20 -24 20 -17 0 6 5 11 12 10 6 -2 14 5 16 16 3 15 -1 18 -21 14 -22
-4 -26 -1 -29 21 -3 24 -4 24 -12 6z"/>
<path d="M4521 8078 c0 -17 4 -28 12 -28 8 0 17 -19 23 -47 7 -38 14 -49 30
-51 26 -4 38 22 18 38 -8 7 -14 20 -14 29 0 22 -19 41 -41 41 -10 0 -19 10
-22 23 -4 19 -4 18 -6 -5z"/>
<path d="M4590 8065 c0 -9 5 -15 11 -13 6 2 11 8 11 13 0 5 -5 11 -11 13 -6 2
-11 -4 -11 -13z"/>
<path d="M4615 8000 c-3 -5 1 -10 10 -10 9 0 13 5 10 10 -3 6 -8 10 -10 10 -2
0 -7 -4 -10 -10z"/>
<path d="M4516 7975 c4 -8 10 -12 15 -9 11 6 2 24 -11 24 -5 0 -7 -7 -4 -15z"/>
<path d="M5367 7917 c-3 -7 -1 -20 3 -28 7 -11 10 -10 16 4 4 10 2 23 -3 28
-7 7 -12 6 -16 -4z"/>
<path d="M5920 7899 c0 -5 5 -7 10 -4 6 3 10 8 10 11 0 2 -4 4 -10 4 -5 0 -10
-5 -10 -11z"/>
<path d="M5881 7884 c0 -11 3 -14 6 -6 3 7 2 16 -1 19 -3 4 -6 -2 -5 -13z"/>
<path d="M4400 7870 c0 -5 5 -10 10 -10 6 0 10 5 10 10 0 6 -4 10 -10 10 -5 0
-10 -4 -10 -10z"/>
<path d="M4970 7860 c0 -5 9 -10 21 -10 11 0 17 5 14 10 -3 6 -13 10 -21 10
-8 0 -14 -4 -14 -10z"/>
<path d="M6490 7835 c-8 -9 -8 -15 -2 -15 12 0 26 19 19 26 -2 2 -10 -2 -17
-11z"/>
<path d="M5761 7832 c-1 -7 -5 -11 -10 -7 -5 3 -9 -8 -9 -25 1 -17 -2 -33 -5
-37 -4 -3 -7 7 -8 23 -1 29 -1 29 -8 4 -4 -14 -3 -35 2 -47 11 -24 37 -31 37
-10 0 9 2 9 9 -1 5 -8 6 8 4 40 -5 53 -11 84 -12 60z"/>
<path d="M6095 7819 c-4 -6 -5 -12 -2 -15 2 -3 7 2 10 11 7 17 1 20 -8 4z"/>
<path d="M6406 7803 c-6 -21 -9 -24 -17 -12 -8 11 -9 10 -7 -5 5 -32 26 -29
33 4 9 39 0 51 -9 13z"/>
<path d="M5880 7790 c0 -5 5 -10 10 -10 6 0 10 5 10 10 0 6 -4 10 -10 10 -5 0
-10 -4 -10 -10z"/>
<path d="M5841 7772 c-17 -31 -13 -40 5 -14 9 13 14 26 11 29 -3 2 -10 -4 -16
-15z"/>
<path d="M6345 7750 c-4 -11 -10 -18 -15 -15 -4 3 -6 -4 -3 -15 3 -11 0 -20
-6 -20 -6 0 -11 6 -11 13 -1 6 -8 -1 -17 -18 -9 -16 -21 -34 -27 -38 -7 -6 -4
-7 6 -3 10 3 20 1 24 -5 3 -6 12 -3 20 8 13 16 14 16 8 1 -3 -10 -2 -18 3 -18
15 0 32 46 27 71 -5 22 -4 22 6 5 12 -17 13 -17 25 5 10 20 9 26 -3 37 -22 17
-30 15 -37 -8z"/>
<path d="M3550 7720 c0 -24 25 -27 34 -4 9 23 8 24 -14 24 -13 0 -20 -7 -20
-20z"/>
<path d="M5851 7733 c-1 -6 -4 -20 -7 -30 -5 -17 -5 -17 6 0 6 10 9 23 6 30
-3 9 -5 9 -5 0z"/>
<path d="M5713 7703 c-15 -5 -17 -39 -4 -48 11 -6 9 -44 -3 -63 -4 -7 -2 -12
4 -12 6 0 8 -4 5 -10 -3 -5 3 -10 14 -10 12 0 21 4 21 9 0 5 7 16 15 24 8 9
15 33 16 54 3 65 1 68 -21 48 -18 -16 -20 -16 -20 -2 0 17 -5 19 -27 10z m12
-22 c3 -5 1 -12 -5 -16 -5 -3 -10 1 -10 9 0 18 6 21 15 7z"/>
<path d="M5972 7680 c0 -19 2 -27 5 -17 2 9 2 25 0 35 -3 9 -5 1 -5 -18z"/>
<path d="M6230 7665 c-13 -14 -20 -28 -15 -32 4 -5 10 -2 12 5 3 6 10 9 16 5
6 -4 8 0 4 9 -3 9 0 21 6 27 6 6 9 11 6 11 -3 0 -16 -11 -29 -25z"/>
<path d="M5270 7644 c-6 -14 -10 -33 -10 -42 -1 -15 -2 -15 -14 1 -10 13 -16
15 -22 6 -5 -9 -11 -7 -21 6 -15 22 -18 12 -3 -15 11 -20 -10 -35 -45 -31 -16
3 -17 1 -6 -13 8 -9 19 -16 25 -15 25 3 70 -4 54 -8 -22 -5 -24 -23 -3 -23 8
0 15 -4 15 -10 0 -5 -4 -10 -10 -10 -5 0 -10 -7 -10 -15 0 -8 6 -15 14 -15 8
0 17 -6 19 -12 4 -10 6 -10 6 0 1 6 10 12 22 12 13 0 18 4 13 13 -4 6 -4 9 1
5 13 -12 35 12 28 29 -4 11 -2 14 5 9 17 -10 15 -36 -3 -56 -14 -16 -14 -18 1
-24 12 -4 15 -2 10 9 -3 9 4 21 20 31 22 15 23 18 9 34 -8 9 -15 27 -15 41
l-1 24 -12 -23 c-7 -12 -16 -19 -20 -16 -4 4 -7 0 -7 -9 0 -9 -5 -17 -10 -17
-6 0 -8 12 -4 28 3 17 2 22 -3 15 -6 -8 -8 12 -7 52 1 36 0 65 -3 65 -2 0 -8
-12 -13 -26z"/>
<path d="M5323 7653 c-15 -5 -17 -23 -4 -23 5 0 11 7 15 15 3 8 4 15 3 14 -1
0 -8 -3 -14 -6z"/>
<path d="M5910 7640 c0 -5 5 -10 10 -10 6 0 10 5 10 10 0 6 -4 10 -10 10 -5 0
-10 -4 -10 -10z"/>
<path d="M5929 7613 c-6 -17 -7 -34 -2 -42 15 -24 31 -24 36 1 3 16 5 13 6
-12 1 -27 4 -31 11 -20 9 14 15 7 10 -15 -1 -5 4 -5 10 2 9 8 6 20 -14 49 -17
25 -27 33 -30 23 -13 -40 -16 -40 -11 -1 6 48 -1 54 -16 15z"/>
<path d="M5901 7594 c0 -11 3 -14 6 -6 3 7 2 16 -1 19 -3 4 -6 -2 -5 -13z"/>
<path d="M7880 7591 c0 -6 4 -13 10 -16 6 -3 7 1 4 9 -7 18 -14 21 -14 7z"/>
<path d="M6056 7545 c2 -45 14 -78 14 -37 0 11 2 26 5 34 3 7 0 22 -7 31 -12
16 -13 12 -12 -28z"/>
<path d="M6155 7569 c-4 -6 -5 -12 -2 -15 2 -3 7 2 10 11 7 17 1 20 -8 4z"/>
<path d="M6032 7520 c0 -14 2 -19 5 -12 2 6 2 18 0 25 -3 6 -5 1 -5 -13z"/>
<path d="M5841 7514 c0 -11 3 -14 6 -6 3 7 2 16 -1 19 -3 4 -6 -2 -5 -13z"/>
<path d="M7936 7455 c-3 -9 -6 -22 -5 -28 0 -7 5 -1 10 12 5 13 8 26 5 28 -2
2 -6 -3 -10 -12z"/>
<path d="M5390 7400 c0 -5 5 -10 10 -10 6 0 10 5 10 10 0 6 -4 10 -10 10 -5 0
-10 -4 -10 -10z"/>
<path d="M6466 7387 c3 -10 9 -15 12 -12 3 3 0 11 -7 18 -10 9 -11 8 -5 -6z"/>
<path d="M6070 7383 c-8 -3 -23 -12 -32 -21 -10 -8 -24 -12 -32 -9 -9 4 -13 1
-10 -6 7 -19 -56 -99 -70 -88 -8 6 -11 0 -12 -21 -1 -21 1 -26 8 -16 7 9 8 7
3 -7 -4 -11 -8 -25 -8 -32 0 -7 -4 -10 -8 -7 -5 2 -6 11 -2 19 3 8 1 15 -5 15
-17 0 -20 -24 -6 -55 9 -20 13 -24 14 -12 0 29 20 9 20 -21 0 -21 -2 -24 -10
-12 -7 11 -8 6 -4 -17 5 -28 3 -33 -12 -33 -16 0 -16 -2 4 -20 12 -12 22 -27
22 -34 0 -8 6 -16 14 -19 29 -12 69 140 44 170 -9 12 -10 17 -2 20 7 2 9 13 6
25 -5 21 -6 21 -13 2 -7 -16 -8 -15 -8 7 -1 15 8 37 19 50 17 21 19 22 20 6 0
-10 -4 -15 -10 -12 -6 3 -7 -1 -4 -10 6 -14 8 -14 20 2 7 10 10 28 8 39 -4 14
1 26 14 35 19 14 22 19 22 40 0 6 6 9 13 6 8 -3 14 1 14 9 0 8 -1 14 -1 13 -1
0 -8 -3 -16 -6z m-123 -190 c-3 -10 -5 -4 -5 12 0 17 2 24 5 18 2 -7 2 -21 0
-30z m3 -153 c0 -5 -4 -10 -10 -10 -5 0 -10 5 -10 10 0 6 5 10 10 10 6 0 10
-4 10 -10z"/>
<path d="M7952 7370 c0 -14 2 -19 5 -12 2 6 2 18 0 25 -3 6 -5 1 -5 -13z"/>
<path d="M5946 7334 c-11 -28 -6 -38 9 -18 8 10 15 22 15 27 0 13 -18 7 -24
-9z"/>
<path d="M7952 7310 c-1 -19 -5 -46 -7 -60 l-6 -25 11 25 c6 13 9 40 7 60 l-4
35 -1 -35z"/>
<path d="M6485 7310 c3 -5 8 -10 11 -10 2 0 4 5 4 10 0 6 -5 10 -11 10 -5 0
-7 -4 -4 -10z"/>
<path d="M6090 7274 c0 -8 -4 -13 -9 -10 -10 7 -8 -41 3 -51 9 -10 14 -2 21
40 5 25 4 37 -4 37 -6 0 -11 -7 -11 -16z"/>
<path d="M6446 7281 c-4 -7 -5 -15 -2 -18 9 -9 19 4 14 18 -4 11 -6 11 -12 0z"/>
<path d="M6455 7251 c-16 -8 -36 -21 -44 -29 -13 -13 -16 -12 -21 4 -4 11 -9
14 -13 7 -8 -12 9 -28 40 -37 20 -6 21 -9 9 -36 -6 -16 -22 -41 -34 -55 -17
-19 -18 -25 -7 -25 8 0 15 6 15 13 0 8 3 7 10 -3 5 -8 7 -25 3 -37 -3 -13 -1
-23 5 -23 6 0 18 -3 26 -6 14 -5 16 1 13 36 -4 44 -2 46 57 64 13 5 15 10 8
19 -7 8 -6 18 4 31 21 29 17 39 -11 32 -30 -8 -33 6 -5 25 20 14 20 14 -2 24
-17 8 -31 7 -53 -4z"/>
<path d="M5857 7220 c3 -11 9 -20 14 -20 11 0 11 3 3 24 -9 23 -23 20 -17 -4z"/>
<path d="M5350 7205 c0 -8 2 -15 4 -15 2 0 6 7 10 15 3 8 1 15 -4 15 -6 0 -10
-7 -10 -15z"/>
<path d="M7946 7184 c-4 -20 -5 -38 -3 -40 3 -3 8 11 11 32 4 20 5 38 3 40 -3
3 -8 -11 -11 -32z"/>
<path d="M5484 7198 c-5 -8 -2 -9 9 -5 11 4 17 1 17 -7 0 -18 48 -27 54 -10 3
7 0 16 -6 20 -7 4 -8 3 -4 -4 4 -7 1 -12 -7 -12 -8 0 -17 7 -21 15 -6 18 -32
20 -42 3z"/>
<path d="M6060 7197 c0 -7 9 -13 20 -14 11 -1 20 3 20 8 0 6 -4 7 -10 4 -5 -3
-10 -1 -10 4 0 6 -4 11 -10 11 -5 0 -10 -6 -10 -13z"/>
<path d="M5296 7175 c-3 -8 -1 -15 4 -15 6 0 10 7 10 15 0 8 -2 15 -4 15 -2 0
-6 -7 -10 -15z"/>
<path d="M7725 7168 c-2 -7 -5 -19 -7 -26 -2 -8 -35 -25 -72 -38 -103 -36
-103 -39 5 -48 l77 -7 4 31 c3 16 1 30 -4 30 -5 0 -7 4 -4 8 7 12 15 62 10 62
-3 0 -6 -6 -9 -12z"/>
<path d="M6280 7160 c8 -5 24 -10 34 -10 26 0 18 6 -19 14 -22 5 -26 4 -15 -4z"/>
<path d="M5580 7140 c6 -11 15 -20 20 -20 14 0 12 9 -4 26 -21 20 -28 17 -16
-6z"/>
<path d="M7976 7109 c-8 -43 -8 -79 2 -79 4 0 8 25 8 55 1 30 0 55 -1 55 -1 0
-5 -14 -9 -31z"/>
<path d="M6470 7079 c0 -5 5 -7 10 -4 6 3 10 8 10 11 0 2 -4 4 -10 4 -5 0 -10
-5 -10 -11z"/>
<path d="M7953 7030 c0 -25 2 -35 4 -22 2 12 2 32 0 45 -2 12 -4 2 -4 -23z"/>
<path d="M6118 7053 c7 -3 16 -2 19 1 4 3 -2 6 -13 5 -11 0 -14 -3 -6 -6z"/>
<path d="M6086 7003 c-13 -26 -15 -26 -22 -9 -6 15 -12 5 -26 -44 -14 -50 -15
-66 -5 -72 9 -6 9 -8 -1 -8 -10 0 -11 -9 -7 -32 4 -18 9 -46 12 -62 6 -31 25
-72 33 -72 38 -4 81 -18 90 -29 7 -8 20 -15 30 -15 10 0 20 -8 23 -19 3 -12
26 -26 70 -40 59 -20 72 -21 129 -11 75 14 82 18 68 35 -8 9 -3 15 19 25 30
12 51 7 51 -11 0 -5 -12 -9 -27 -9 -38 0 -21 -12 22 -16 36 -2 90 18 78 29 -3
4 2 7 13 7 10 0 26 5 34 10 12 7 10 11 -10 19 -14 5 -19 10 -12 10 6 1 12 6
12 12 0 5 -4 7 -10 4 -5 -3 -10 0 -10 9 0 8 6 16 13 19 7 3 0 9 -15 16 -16 6
-28 16 -28 22 0 6 -6 9 -14 6 -8 -3 -20 1 -26 8 -9 11 -8 18 4 30 9 9 16 22
17 28 3 29 -4 63 -14 69 -14 9 -37 -1 -37 -17 0 -12 -40 -29 -48 -20 -2 2 0
17 6 33 8 24 7 31 -9 40 -11 7 -20 8 -24 2 -11 -17 -25 -11 -25 11 0 12 -5 19
-12 16 -7 -2 -21 0 -31 5 -14 7 -22 5 -33 -9 -11 -12 -17 -14 -20 -6 -3 7 -12
9 -21 6 -11 -4 -14 -2 -9 5 5 8 2 10 -8 6 -9 -3 -14 -9 -12 -13 3 -4 -4 -7
-14 -7 -26 0 -33 22 -14 41 19 19 14 19 -22 0 -40 -20 -67 -19 -84 5 -21 29
-56 25 -74 -7z m-29 -55 c-3 -8 -6 -5 -6 6 -1 11 2 17 5 13 3 -3 4 -12 1 -19z"/>
<path d="M6390 7025 c1 -29 18 -38 52 -28 l33 11 -30 1 c-17 1 -36 6 -43 13
-7 7 -12 8 -12 3z"/>
<path d="M5890 7000 c0 -5 5 -10 11 -10 5 0 7 5 4 10 -3 6 -8 10 -11 10 -2 0
-4 -4 -4 -10z"/>
<path d="M5570 6981 c0 -6 5 -13 10 -16 6 -3 10 1 10 9 0 9 -4 16 -10 16 -5 0
-10 -4 -10 -9z"/>
<path d="M5731 6963 c0 -30 17 -78 18 -54 1 8 4 12 7 9 3 -4 1 -16 -6 -27 -6
-12 -7 -21 -2 -21 4 0 8 -24 8 -54 -1 -62 7 -75 34 -58 21 13 25 6 11 -17 -5
-7 -14 -10 -20 -7 -7 5 -11 -1 -11 -14 0 -20 1 -20 23 -3 24 18 28 27 27 77 0
16 5 33 12 38 10 6 10 8 0 8 -35 0 -59 61 -34 86 19 20 23 54 6 54 -7 0 -16
-5 -19 -10 -4 -6 -11 -8 -16 -5 -5 4 -9 1 -9 -5 0 -6 -5 -8 -10 -5 -6 4 -8 10
-5 15 3 5 1 11 -5 15 -6 4 -10 -5 -9 -22z"/>
<path d="M5591 6934 c0 -11 3 -14 6 -6 3 7 2 16 -1 19 -3 4 -6 -2 -5 -13z"/>
<path d="M6803 6792 c-3 -12 -9 -22 -14 -22 -5 0 -6 -7 -2 -16 4 -12 9 -8 20
16 7 18 11 36 8 39 -3 3 -8 -5 -12 -17z"/>
<path d="M6798 6700 c-5 -34 7 -60 27 -60 17 0 19 9 5 30 -5 8 -6 17 -1 20 4
3 -1 12 -10 22 -16 15 -17 14 -21 -12z"/>
<path d="M5422 6645 c0 -16 2 -22 5 -12 2 9 2 23 0 30 -3 6 -5 -1 -5 -18z"/>
<path d="M7688 6543 c-22 -5 -24 -23 -3 -23 8 0 15 4 15 9 0 5 8 12 18 14 11
3 12 5 2 5 -8 0 -23 -2 -32 -5z"/>
<path d="M7802 6520 c0 -14 2 -19 5 -12 2 6 2 18 0 25 -3 6 -5 1 -5 -13z"/>
<path d="M6568 6493 c7 -3 16 -2 19 1 4 3 -2 6 -13 5 -11 0 -14 -3 -6 -6z"/>
<path d="M7657 6465 c-15 -11 -14 -13 9 -23 43 -20 65 -14 46 14 -12 18 -37
22 -55 9z"/>
<path d="M5585 6440 c4 -6 11 -8 16 -5 14 9 11 15 -7 15 -8 0 -12 -5 -9 -10z"/>
<path d="M6618 6443 c-31 -5 -34 -13 -16 -31 15 -15 54 -16 63 -2 3 6 -1 10
-10 10 -11 0 -15 5 -11 15 3 8 4 14 3 14 -1 -1 -14 -4 -29 -6z"/>
<path d="M6585 6373 c-4 -13 -11 -21 -15 -18 -12 7 -21 -25 -12 -41 7 -12 11
-12 26 -1 13 9 16 22 13 47 -3 31 -5 32 -12 13z"/>
<path d="M6877 6366 c-4 -10 -5 -21 -2 -24 9 -9 17 6 13 25 -3 17 -4 17 -11
-1z"/>
<path d="M3260 6320 c-25 -19 -25 -20 -3 -20 12 0 25 5 28 10 4 6 21 8 40 4
44 -8 72 8 30 17 -51 11 -69 9 -95 -11z"/>
<path d="M4610 6256 c0 -9 5 -16 10 -16 6 0 10 4 10 9 0 6 -4 13 -10 16 -5 3
-10 -1 -10 -9z"/>
<path d="M4548 6222 c-36 -4 -45 -30 -13 -38 14 -3 25 -11 25 -16 0 -6 -9 -8
-20 -5 -12 3 -31 -4 -47 -16 -15 -12 -24 -16 -19 -9 5 8 0 12 -13 12 -12 0
-21 -4 -21 -9 0 -5 -9 -13 -20 -16 -11 -3 -20 -9 -20 -13 1 -13 74 -42 80 -31
4 6 18 5 40 -4 18 -8 28 -17 22 -21 -15 -9 -4 -36 14 -36 8 0 14 -10 14 -21 0
-18 2 -19 15 -9 12 10 15 10 15 -1 0 -10 3 -10 12 -1 9 9 14 8 23 -4 16 -23
68 -8 62 17 -3 11 2 23 11 29 15 8 15 9 -3 10 -19 1 -19 2 2 10 16 7 20 14 15
32 -8 33 -74 110 -83 97 -3 -6 -9 0 -13 14 -6 26 -30 35 -78 29z"/>
<path d="M6288 6163 c7 -3 16 -2 19 1 4 3 -2 6 -13 5 -11 0 -14 -3 -6 -6z"/>
<path d="M6348 6153 c7 -3 16 -2 19 1 4 3 -2 6 -13 5 -11 0 -14 -3 -6 -6z"/>
<path d="M6468 6143 c7 -3 16 -2 19 1 4 3 -2 6 -13 5 -11 0 -14 -3 -6 -6z"/>
<path d="M6568 6143 c7 -3 16 -2 19 1 4 3 -2 6 -13 5 -11 0 -14 -3 -6 -6z"/>
<path d="M7643 6143 c9 -2 23 -2 30 0 6 3 -1 5 -18 5 -16 0 -22 -2 -12 -5z"/>
<path d="M7750 6128 c0 -19 2 -20 10 -8 13 19 13 30 0 30 -5 0 -10 -10 -10
-22z"/>
<path d="M7898 6143 c7 -3 16 -2 19 1 4 3 -2 6 -13 5 -11 0 -14 -3 -6 -6z"/>
<path d="M4850 6094 c0 -8 5 -12 10 -9 6 3 10 10 10 16 0 5 -4 9 -10 9 -5 0
-10 -7 -10 -16z"/>
<path d="M8108 6063 c7 -3 16 -2 19 1 4 3 -2 6 -13 5 -11 0 -14 -3 -6 -6z"/>
<path d="M6624 6049 c-7 -12 12 -29 34 -29 15 0 16 12 0 28 -15 15 -25 15 -34
1z"/>
<path d="M8106 6033 c-9 -22 10 -41 26 -25 9 9 9 12 -1 12 -8 0 -11 6 -7 15 3
8 1 15 -3 15 -5 0 -12 -8 -15 -17z"/>
<path d="M6527 6004 c-6 -10 9 -42 16 -34 3 3 1 14 -3 24 -3 11 -9 15 -13 10z"/>
<path d="M6573 5983 c-10 -4 -10 -9 0 -24 11 -18 37 -27 37 -11 -1 15 -26 39
-37 35z"/>
<path d="M6675 5980 c3 -5 11 -10 16 -10 6 0 7 5 4 10 -3 6 -11 10 -16 10 -6
0 -7 -4 -4 -10z"/>
<path d="M8046 5965 c4 -8 8 -15 10 -15 2 0 4 7 4 15 0 8 -4 15 -10 15 -5 0
-7 -7 -4 -15z"/>
<path d="M4440 5963 c8 -3 23 -12 33 -21 10 -9 17 -11 17 -4 0 13 -32 32 -52
31 -9 0 -8 -2 2 -6z"/>
<path d="M4606 5960 c6 -6 28 -14 49 -17 29 -5 36 -3 30 6 -4 7 -16 11 -26 8
-11 -3 -19 -1 -19 4 0 5 -10 9 -22 9 -15 0 -19 -3 -12 -10z"/>
<path d="M6530 5949 c0 -5 5 -7 10 -4 6 3 10 8 10 11 0 2 -4 4 -10 4 -5 0 -10
-5 -10 -11z"/>
<path d="M6700 5925 c0 -14 4 -25 9 -25 4 0 6 11 3 25 -2 14 -6 25 -8 25 -2 0
-4 -11 -4 -25z"/>
<path d="M4367 5933 c-13 -12 -7 -23 13 -23 11 0 20 7 20 15 0 15 -21 21 -33
8z"/>
<path d="M6514 5909 c1 -16 7 -29 14 -29 6 0 12 -4 12 -8 0 -5 7 -9 15 -9 20
0 19 21 -1 41 -8 9 -11 16 -5 16 22 0 10 15 -13 16 -19 1 -23 -3 -22 -27z"/>
<path d="M4230 5919 c0 -5 5 -7 10 -4 6 3 10 8 10 11 0 2 -4 4 -10 4 -5 0 -10
-5 -10 -11z"/>
<path d="M8365 5911 c-17 -7 -17 -8 8 -13 19 -4 27 -1 27 8 0 15 -6 16 -35 5z"/>
<path d="M5615 5900 c-31 -13 -65 -49 -64 -68 0 -14 2 -14 6 -2 6 16 29 38 66
64 25 17 22 19 -8 6z"/>
<path d="M4331 5896 c12 -10 79 -16 79 -6 0 5 -19 10 -42 10 -23 0 -39 -2 -37
-4z"/>
<path d="M4600 5880 c0 -17 -4 -20 -17 -15 -10 4 -28 7 -40 7 -12 -1 -25 3
-28 8 -4 6 -13 5 -25 -2 -18 -11 -18 -14 -3 -30 10 -11 20 -15 27 -10 6 5 20
12 30 16 20 7 20 7 0 -15 l-19 -22 32 17 c18 9 39 16 48 16 17 0 21 35 5 45
-5 3 -10 -4 -10 -15z"/>
<path d="M2385 5880 c-3 -5 1 -10 9 -10 9 0 16 5 16 10 0 6 -4 10 -9 10 -6 0
-13 -4 -16 -10z"/>
<path d="M6665 5870 c-3 -5 -1 -10 4 -10 6 0 11 5 11 10 0 6 -2 10 -4 10 -3 0
-8 -4 -11 -10z"/>
<path d="M5615 5860 c-3 -5 -2 -10 4 -10 5 0 13 5 16 10 3 6 2 10 -4 10 -5 0
-13 -4 -16 -10z"/>
<path d="M2320 5809 c0 -24 23 -21 28 4 2 10 -3 17 -12 17 -10 0 -16 -9 -16
-21z"/>
<path d="M4740 5820 c-9 -6 -10 -10 -3 -10 6 0 15 5 18 10 8 12 4 12 -15 0z"/>
<path d="M5597 5815 c-9 -8 -17 -11 -20 -7 -2 4 -2 1 0 -6 1 -8 3 -21 3 -30 0
-10 7 -3 16 15 9 18 23 34 32 36 16 4 16 5 0 6 -9 0 -23 -6 -31 -14z"/>
<path d="M5487 5793 c-4 -3 -7 -11 -7 -17 0 -6 5 -5 12 2 6 6 9 14 7 17 -3 3
-9 2 -12 -2z"/>
<path d="M4940 5770 c-12 -8 -10 -10 8 -10 13 0 20 4 17 10 -7 12 -6 12 -25 0z"/>
<path d="M6730 5763 c0 -12 5 -25 11 -28 16 -11 17 -2 2 25 -12 24 -13 24 -13
3z"/>
<path d="M5125 5750 c4 -6 1 -17 -5 -25 -7 -9 -8 -15 -2 -15 10 0 22 23 22 41
0 5 -5 9 -11 9 -5 0 -7 -5 -4 -10z"/>
<path d="M5466 5745 c4 -8 8 -15 10 -15 2 0 4 7 4 15 0 8 -4 15 -10 15 -5 0
-7 -7 -4 -15z"/>
<path d="M5175 5742 c-12 -8 -15 -52 -4 -52 4 0 12 14 18 30 10 30 6 37 -14
22z"/>
<path d="M6870 5700 c0 -11 2 -20 4 -20 2 0 6 9 9 20 3 11 1 20 -4 20 -5 0 -9
-9 -9 -20z"/>
<path d="M2152 5703 c-8 -3 -5 -10 10 -22 26 -20 78 -33 78 -20 0 5 -7 9 -15
9 -8 0 -23 9 -32 20 -18 21 -20 22 -41 13z"/>
<path d="M4713 5695 c0 -8 4 -12 9 -9 5 3 6 10 3 15 -9 13 -12 11 -12 -6z"/>
<path d="M4855 5700 c3 -5 8 -10 11 -10 2 0 4 5 4 10 0 6 -5 10 -11 10 -5 0
-7 -4 -4 -10z"/>
<path d="M5137 5703 c-4 -3 -7 -11 -7 -17 0 -6 5 -5 12 2 6 6 9 14 7 17 -3 3
-9 2 -12 -2z"/>
<path d="M5161 5644 c0 -11 3 -14 6 -6 3 7 2 16 -1 19 -3 4 -6 -2 -5 -13z"/>
<path d="M5470 5650 c-13 -8 -13 -10 2 -10 9 0 20 5 23 10 8 13 -5 13 -25 0z"/>
<path d="M2063 5635 c-11 -8 -23 -11 -27 -8 -3 3 -6 1 -6 -6 0 -13 37 -6 54
10 17 16 0 19 -21 4z"/>
<path d="M5440 5605 c-17 -31 -9 -41 13 -17 9 10 13 23 8 30 -5 9 -11 5 -21
-13z"/>
<path d="M5271 5603 c0 -7 -1 -16 0 -19 0 -4 -5 -10 -12 -15 -8 -4 -11 -10 -8
-13 11 -12 30 13 26 35 -2 13 -5 18 -6 12z"/>
<path d="M5610 5600 c0 -5 5 -10 11 -10 5 0 7 5 4 10 -3 6 -8 10 -11 10 -2 0
-4 -4 -4 -10z"/>
<path d="M5544 5518 c-4 -6 0 -16 8 -22 8 -6 18 -21 22 -33 7 -21 34 -38 44
-28 3 3 -1 5 -9 5 -11 0 -11 2 -1 8 9 6 10 16 1 40 -6 18 -15 32 -21 32 -5 0
-7 -4 -4 -8 2 -4 -4 -8 -14 -8 -10 0 -16 6 -13 13 6 16 -3 17 -13 1z"/>
<path d="M4880 5510 c0 -5 5 -10 11 -10 5 0 7 5 4 10 -3 6 -8 10 -11 10 -2 0
-4 -4 -4 -10z"/>
<path d="M5581 5404 c0 -11 3 -14 6 -6 3 7 2 16 -1 19 -3 4 -6 -2 -5 -13z"/>
<path d="M2045 5379 c-10 -15 3 -25 16 -12 7 7 7 13 1 17 -6 3 -14 1 -17 -5z"/>
<path d="M1901 5318 c-17 -6 -21 -12 -14 -19 13 -13 55 -8 60 7 6 17 -18 23
-46 12z"/>
<path d="M4921 5304 c0 -11 3 -14 6 -6 3 7 2 16 -1 19 -3 4 -6 -2 -5 -13z"/>
<path d="M8488 5273 c6 -2 18 -2 25 0 6 3 1 5 -13 5 -14 0 -19 -2 -12 -5z"/>
<path d="M5762 5100 c0 -14 2 -19 5 -12 2 6 2 18 0 25 -3 6 -5 1 -5 -13z"/>
<path d="M1838 5093 c7 -3 16 -2 19 1 4 3 -2 6 -13 5 -11 0 -14 -3 -6 -6z"/>
<path d="M8440 5059 c0 -5 5 -7 10 -4 6 3 10 8 10 11 0 2 -4 4 -10 4 -5 0 -10
-5 -10 -11z"/>
<path d="M5557 5040 c-3 -11 -1 -20 4 -20 5 0 9 9 9 20 0 11 -2 20 -4 20 -2 0
-6 -9 -9 -20z"/>
<path d="M5795 5030 c-19 -8 -19 -9 3 -9 12 -1 22 4 22 9 0 6 -1 10 -2 9 -2 0
-12 -4 -23 -9z"/>
<path d="M1888 4943 c6 -2 18 -2 25 0 6 3 1 5 -13 5 -14 0 -19 -2 -12 -5z"/>
<path d="M5665 4920 c-3 -5 -1 -10 4 -10 6 0 11 5 11 10 0 6 -2 10 -4 10 -3 0
-8 -4 -11 -10z"/>
<path d="M5590 4911 c0 -5 5 -13 10 -16 6 -3 10 -2 10 4 0 5 -4 13 -10 16 -5
3 -10 2 -10 -4z"/>
<path d="M8427 4844 c-4 -4 -17 -8 -29 -9 -13 -1 -27 -3 -31 -4 -5 0 -1 -8 7
-17 9 -8 16 -21 16 -27 0 -8 -3 -7 -9 1 -5 8 -17 12 -27 10 -17 -3 -16 -6 8
-22 25 -16 29 -16 50 -2 21 15 21 16 3 16 -15 0 -17 2 -6 9 7 5 10 14 7 20 -4
6 -1 11 8 11 8 0 18 5 21 10 7 11 -8 14 -18 4z"/>
<path d="M8320 4749 c0 -5 16 -17 35 -25 50 -20 53 -17 11 11 -41 28 -46 29
-46 14z"/>
<path d="M6177 2414 c-4 -4 -7 -16 -7 -26 0 -14 -5 -17 -24 -12 -18 4 -26 1
-30 -13 -7 -22 5 -72 19 -75 17 -3 71 110 59 122 -6 6 -13 7 -17 4z"/>
<path d="M6241 2330 c-1 -27 -4 -31 -11 -20 -5 8 -10 11 -10 5 1 -17 24 -40
40 -40 20 0 42 43 31 62 -7 13 -9 13 -14 -1 -9 -23 -25 -20 -30 7 -3 15 -5 11
-6 -13z"/>
<path d="M3520 2240 c0 -13 5 -20 13 -17 6 2 12 10 12 17 0 7 -6 15 -12 18 -8
2 -13 -5 -13 -18z"/>
<path d="M6131 2198 c-12 -26 -7 -88 5 -75 3 3 11 27 18 54 10 38 10 50 1 50
-6 0 -17 -13 -24 -29z"/>
<path d="M7113 2193 c-14 -5 -18 -33 -5 -33 5 0 16 6 26 13 15 11 16 15 5 19
-8 3 -20 3 -26 1z"/>
<path d="M6627 2163 c-10 -9 -8 -51 2 -57 5 -3 9 10 9 29 0 37 -1 39 -11 28z"/>
<path d="M5473 2100 c0 -25 2 -35 4 -22 2 12 2 32 0 45 -2 12 -4 2 -4 -23z"/>
<path d="M5640 2120 c0 -11 2 -20 5 -20 2 0 9 9 15 20 9 16 8 20 -5 20 -8 0
-15 -9 -15 -20z"/>
<path d="M6260 2066 c0 -9 4 -16 9 -16 5 0 12 -8 15 -17 2 -10 4 -5 3 11 -2
30 -27 50 -27 22z"/>
<path d="M5652 2000 c0 -14 2 -19 5 -12 2 6 2 18 0 25 -3 6 -5 1 -5 -13z"/>
<path d="M4997 1923 c-11 -10 -8 -20 7 -26 10 -4 12 0 9 14 -6 21 -7 22 -16
12z"/>
<path d="M7180 1915 c-10 -12 -10 -15 4 -15 9 0 16 7 16 15 0 8 -2 15 -4 15
-2 0 -9 -7 -16 -15z"/>
<path d="M2916 1814 c-9 -24 -8 -25 13 -12 11 7 17 16 15 20 -8 13 -21 9 -28
-8z"/>
<path d="M7425 1700 c3 -5 11 -10 16 -10 6 0 7 5 4 10 -3 6 -11 10 -16 10 -6
0 -7 -4 -4 -10z"/>
<path d="M2765 1670 c-3 -5 -1 -10 4 -10 6 0 11 5 11 10 0 6 -2 10 -4 10 -3 0
-8 -4 -11 -10z"/>
<path d="M2705 1619 c-11 -17 1 -21 15 -4 8 9 8 15 2 15 -6 0 -14 -5 -17 -11z"/>
<path d="M2670 1579 c0 -9 -13 -25 -30 -37 -31 -23 -41 -48 -16 -39 8 3 16 1
18 -5 2 -6 12 10 22 36 10 26 15 50 12 53 -3 4 -6 0 -6 -8z"/>
<path d="M7120 1560 c0 -24 22 -26 44 -4 22 21 20 24 -14 24 -23 0 -30 -4 -30
-20z"/>
<path d="M7075 1551 c-6 -11 9 -23 19 -14 9 9 7 23 -3 23 -6 0 -12 -4 -16 -9z"/>
<path d="M7600 1540 c0 -8 -10 -9 -30 -5 -19 4 -30 3 -30 -4 0 -6 8 -12 18
-12 9 -1 27 -3 40 -4 22 -2 31 18 12 30 -5 3 -10 1 -10 -5z"/>
<path d="M2581 1409 c-1 -9 -11 -28 -22 -43 -24 -31 -20 -43 9 -27 26 14 33
36 22 63 -6 15 -9 18 -9 7z"/>
<path d="M7615 1410 c3 -5 8 -10 11 -10 2 0 4 5 4 10 0 6 -5 10 -11 10 -5 0
-7 -4 -4 -10z"/>
<path d="M7485 1380 c3 -5 8 -10 11 -10 2 0 4 5 4 10 0 6 -5 10 -11 10 -5 0
-7 -4 -4 -10z"/>
<path d="M7510 1361 c0 -14 34 -48 66 -64 26 -14 34 -14 43 -3 13 15 5 26 -19
26 -10 0 -34 11 -54 25 -20 13 -36 21 -36 16z"/>
<path d="M2480 1200 c0 -5 7 -10 15 -10 8 0 15 5 15 10 0 6 -7 10 -15 10 -8 0
-15 -4 -15 -10z"/>
<path d="M2663 1197 c-42 -6 -63 -14 -63 -23 0 -8 5 -14 10 -14 6 0 10 5 10
10 0 6 6 10 13 10 8 0 12 -14 12 -40 0 -22 2 -40 6 -40 3 0 4 -10 2 -22 -3
-16 8 -35 33 -62 33 -36 35 -42 23 -60 -7 -12 -18 -31 -24 -44 -15 -28 -62
-72 -78 -72 -7 0 -23 -9 -37 -20 -14 -11 -33 -20 -42 -20 -10 0 -18 -4 -18 -9
0 -5 -11 -12 -25 -15 -32 -8 -39 -39 -22 -94 l13 -43 27 31 c25 28 29 59 6 45
-17 -11 -9 12 10 29 11 10 25 15 30 11 6 -3 11 1 11 9 0 18 16 21 25 5 13 -20
-5 -55 -50 -101 -42 -43 -58 -78 -35 -78 6 0 10 7 10 16 0 13 3 14 15 4 13
-11 12 -16 -5 -40 -23 -33 -25 -40 -7 -40 7 0 12 -13 12 -32 0 -26 4 -33 18
-32 14 2 15 -1 7 -11 -8 -10 -8 -20 0 -36 l12 -22 29 31 c16 17 29 36 29 41 0
6 7 11 15 11 8 0 15 7 15 15 0 7 7 18 16 23 13 7 16 19 11 52 -3 24 -10 46
-16 49 -14 9 0 59 28 105 25 39 26 52 7 59 -9 4 -12 0 -9 -13 3 -10 0 -21 -6
-24 -7 -4 -11 1 -11 13 0 23 -15 28 -23 9 -3 -7 -6 -8 -6 -3 0 6 11 24 24 40
17 20 25 25 25 14 0 -21 33 -50 46 -41 6 4 14 14 17 22 4 8 4 0 1 -19 -5 -27
-3 -33 9 -28 8 3 20 0 26 -6 8 -8 11 -8 11 0 0 6 -5 13 -11 15 -14 5 0 38 17
38 8 0 14 6 14 14 0 26 64 115 84 115 15 1 17 -3 11 -21 -4 -13 -10 -49 -12
-81 -4 -53 -3 -58 14 -55 10 2 19 13 21 28 2 14 10 30 18 37 9 6 16 25 16 42
1 17 5 28 10 25 5 -3 12 3 15 15 3 12 10 21 15 21 5 0 7 9 3 20 -3 10 -1 28 5
40 11 20 -3 30 -15 10 -3 -5 -22 -10 -41 -10 -23 0 -38 -6 -46 -20 -7 -11 -22
-20 -33 -20 -20 -1 -55 -22 -55 -33 0 -16 -59 -97 -64 -89 -3 5 1 30 10 56 15
42 15 49 0 71 -20 31 -12 59 14 43 13 -9 23 -7 40 5 l23 16 -27 11 c-15 5 -45
13 -67 16 -35 6 -37 8 -22 20 17 12 17 13 1 19 -11 5 -18 18 -18 35 0 19 6 30
18 33 16 4 16 5 0 6 -38 2 -16 21 25 21 31 0 38 3 27 10 -18 11 -42 11 -127
-3z m-113 -551 c0 -3 -4 -8 -10 -11 -5 -3 -10 -1 -10 4 0 6 5 11 10 11 6 0 10
-2 10 -4z m10 -26 c0 -5 -5 -10 -11 -10 -5 0 -7 5 -4 10 3 6 8 10 11 10 2 0 4
-4 4 -10z m36 -108 c-15 -15 -16 -15 -16 5 0 12 6 23 13 26 19 6 21 -13 3 -31z"/>
<path d="M2820 1170 c0 -5 5 -10 10 -10 6 0 10 5 10 10 0 6 -4 10 -10 10 -5 0
-10 -4 -10 -10z"/>
<path d="M7978 1173 c7 -3 16 -2 19 1 4 3 -2 6 -13 5 -11 0 -14 -3 -6 -6z"/>
<path d="M8010 1170 c0 -5 5 -10 10 -10 6 0 10 5 10 10 0 6 -4 10 -10 10 -5 0
-10 -4 -10 -10z"/>
<path d="M8053 1168 c2 -7 10 -12 16 -10 6 1 11 -2 11 -8 0 -5 5 -10 12 -10 6
0 3 9 -7 20 -20 22 -39 27 -32 8z"/>
<path d="M8239 1157 c15 -19 41 -23 41 -7 0 6 -4 10 -9 10 -5 0 -18 3 -28 7
-16 6 -16 5 -4 -10z"/>
<path d="M2474 1136 c-10 -8 -17 -17 -14 -20 10 -10 50 6 50 20 0 18 -11 18
-36 0z"/>
<path d="M8126 1141 c-11 -16 27 -22 43 -6 14 13 13 15 -11 15 -15 0 -29 -4
-32 -9z"/>
<path d="M2535 1130 c-3 -5 -1 -10 4 -10 6 0 11 5 11 10 0 6 -2 10 -4 10 -3 0
-8 -4 -11 -10z"/>
<path d="M2815 1122 c-6 -4 -16 -18 -23 -31 -12 -21 -12 -23 2 -18 9 4 16 2
16 -4 0 -6 9 -8 20 -4 13 4 20 2 20 -6 0 -8 7 -5 20 6 26 24 27 59 1 52 -10
-2 -25 -1 -33 4 -7 4 -18 5 -23 1z"/>
<path d="M7676 1115 c-3 -8 -1 -15 4 -15 6 0 10 7 10 15 0 8 -2 15 -4 15 -2 0
-6 -7 -10 -15z"/>
<path d="M2456 1084 c-9 -22 -7 -57 3 -73 7 -11 15 -8 38 15 16 16 38 34 48
40 10 6 20 16 21 22 1 7 0 8 -2 3 -3 -5 -20 -5 -42 0 -52 12 -59 11 -66 -7z"/>
<path d="M6880 1075 c0 -15 26 -32 36 -23 2 3 2 13 -2 22 -8 20 -34 21 -34 1z"/>
<path d="M8256 1081 c-4 -5 -2 -12 3 -15 5 -4 12 -2 15 3 4 5 2 12 -3 15 -5 4
-12 2 -15 -3z"/>
<path d="M8210 1055 c7 -8 17 -15 22 -15 6 0 5 7 -2 15 -7 8 -17 15 -22 15 -6
0 -5 -7 2 -15z"/>
<path d="M2630 1045 c0 -26 -18 -45 -41 -45 -10 0 -21 -4 -24 -10 -4 -6 10
-10 34 -10 29 0 41 4 41 14 0 8 4 16 9 18 5 2 3 14 -4 28 -13 23 -14 23 -15 5z"/>
<path d="M7425 1030 c-3 -5 -1 -10 4 -10 6 0 11 -8 11 -18 0 -9 9 -23 20 -30
11 -7 20 -8 20 -3 0 5 -7 11 -15 15 -8 3 -15 14 -15 25 0 23 -16 36 -25 21z"/>
<path d="M7647 1033 c-4 -3 -7 -11 -7 -17 0 -6 5 -5 12 2 6 6 9 14 7 17 -3 3
-9 2 -12 -2z"/>
<path d="M7640 990 c0 -5 5 -10 10 -10 6 0 10 5 10 10 0 6 -4 10 -10 10 -5 0
-10 -4 -10 -10z"/>
<path d="M2460 966 c-15 -15 -12 -36 4 -36 7 0 19 7 26 15 7 8 21 15 31 15 11
0 19 4 19 10 0 12 -67 9 -80 -4z"/>
<path d="M7401 954 c0 -11 3 -14 6 -6 3 7 2 16 -1 19 -3 4 -6 -2 -5 -13z"/>
<path d="M2608 943 c6 -2 18 -2 25 0 6 3 1 5 -13 5 -14 0 -19 -2 -12 -5z"/>
<path d="M2510 905 c-48 -11 -50 -13 -20 -14 35 -1 32 -16 -5 -23 -26 -4 -35
-17 -35 -51 0 -25 3 -27 28 -21 33 8 72 31 72 44 0 5 6 7 14 4 7 -3 16 2 20
11 3 9 0 18 -9 21 -25 10 -17 32 13 37 25 4 25 4 2 4 -14 0 -50 -5 -80 -12z"/>
<path d="M2626 881 c-4 -7 -5 -15 -2 -18 9 -9 19 4 14 18 -4 11 -6 11 -12 0z"/>
<path d="M2951 654 c0 -11 3 -14 6 -6 3 7 2 16 -1 19 -3 4 -6 -2 -5 -13z"/>
<path d="M2972 575 c-7 -14 -12 -32 -12 -40 0 -9 -10 -15 -24 -15 -13 0 -30
-10 -39 -22 l-16 -23 0 24 -1 24 -20 -26 c-11 -14 -20 -30 -20 -37 0 -7 8 -9
20 -5 24 7 24 5 7 -26 -26 -49 -42 -69 -55 -69 -7 0 -11 -4 -8 -9 14 -23 -7
-40 -45 -38 -35 2 -39 5 -39 30 0 15 6 27 13 28 6 0 3 4 -8 9 -26 11 -44 12
-26 1 11 -7 8 -13 -12 -31 -14 -12 -23 -28 -20 -35 7 -20 -37 -41 -48 -24 -12
19 -11 25 6 39 25 20 18 47 -12 53 -16 3 -31 3 -36 0 -12 -7 4 -77 21 -89 8
-6 15 -25 16 -42 1 -24 6 -32 20 -32 11 0 16 -5 13 -14 -5 -12 60 -86 76 -86
15 0 87 -84 87 -101 0 -19 13 -19 354 -19 l355 1 12 37 c6 20 16 40 22 43 5 4
7 14 4 22 -7 18 -46 11 -54 -9 -3 -8 -10 -14 -16 -14 -8 0 -8 3 -1 10 6 6 9
24 6 40 -4 26 -6 27 -23 17 -10 -6 -19 -17 -19 -23 0 -7 -9 -14 -20 -17 -11
-3 -20 -9 -19 -14 1 -4 -2 -19 -6 -32 -8 -23 -9 -23 -22 -6 -9 13 -13 15 -13
5 0 -10 -3 -11 -10 -4 -7 7 -8 25 -1 53 5 23 7 40 4 37 -4 -3 -12 -1 -20 5
-10 9 -13 8 -13 -5 0 -19 -16 -22 -18 -3 -1 6 -5 28 -8 48 -4 22 -2 39 5 43 7
5 11 -2 11 -15 0 -15 3 -20 10 -13 14 14 1 52 -20 59 -13 4 -21 24 -30 70 -7
36 -16 65 -21 65 -5 0 -9 -6 -10 -12 -1 -7 -4 -2 -8 12 l-7 25 -17 -34 c-9
-19 -17 -40 -17 -46 0 -7 -7 -15 -15 -19 -11 -4 -15 1 -15 19 0 29 -19 43 -31
24 -5 -8 -9 -9 -9 -4 0 18 -38 15 -43 -3 -3 -9 -4 6 -2 33 4 52 5 52 -33 -2
-11 -16 -12 -16 -6 7 6 22 5 23 -10 11 -9 -7 -16 -19 -16 -26 0 -6 -9 -20 -20
-30 -27 -25 -25 -14 10 52 30 56 40 113 19 113 -7 0 -18 -8 -25 -17 -11 -15
-12 -9 -7 40 6 61 -5 75 -25 32z m-12 -85 c0 -5 -7 -10 -15 -10 -8 0 -15 5
-15 10 0 6 7 10 15 10 8 0 15 -4 15 -10z m17 -36 c-3 -3 -12 -4 -19 -1 -8 3
-5 6 6 6 11 1 17 -2 13 -5z m-31 -15 c3 -6 -3 -21 -15 -32 l-21 -21 0 25 c0
37 20 53 36 28z m138 -131 c5 -23 3 -28 -13 -28 -11 0 -23 5 -26 10 -3 6 -2
10 3 10 5 0 12 10 15 22 7 26 12 23 21 -14z m-151 -22 c-15 -14 -32 -26 -36
-26 -13 0 12 38 36 55 33 23 33 0 0 -29z m214 -58 c-3 -8 -6 -5 -6 6 -1 11 2
17 5 13 3 -3 4 -12 1 -19z m46 -15 c-3 -7 -10 -13 -15 -13 -6 0 -7 7 -4 16 3
9 6 21 6 27 0 7 4 7 9 -2 5 -8 7 -20 4 -28z m142 -153 c-3 -5 -12 -10 -18 -10
-7 0 -6 4 3 10 19 12 23 12 15 0z m150 1 c3 -5 1 -12 -5 -16 -5 -3 -10 1 -10
9 0 18 6 21 15 7z"/>
<path d="M3155 580 c-4 -6 -10 -23 -15 -38 -4 -15 -11 -35 -15 -44 -12 -30 9
-20 22 10 24 54 29 106 8 72z"/>
<path d="M3191 478 c-13 -38 -14 -85 -2 -93 14 -8 21 9 27 64 5 58 -9 75 -25
29z"/>
<path d="M8550 414 c0 -8 5 -12 10 -9 6 3 10 10 10 16 0 5 -4 9 -10 9 -5 0
-10 -7 -10 -16z"/>
<path d="M8587 423 c-12 -19 3 -41 27 -39 15 1 22 8 23 21 1 11 -1 14 -4 8 -7
-19 -31 -16 -35 5 -2 11 -6 13 -11 5z"/>
<path d="M2778 391 c-17 -20 -14 -65 5 -58 9 3 23 77 15 77 -2 0 -11 -9 -20
-19z"/>
<path d="M3310 358 c0 -15 5 -30 10 -33 13 -8 13 25 0 45 -8 12 -10 9 -10 -12z"/>
<path d="M8600 360 c0 -5 6 -10 14 -10 8 0 23 -3 33 -7 16 -6 16 -5 4 10 -15
18 -51 23 -51 7z"/>
<path d="M2730 340 c0 -5 5 -10 10 -10 6 0 10 5 10 10 0 6 -4 10 -10 10 -5 0
-10 -4 -10 -10z"/>
<path d="M3445 329 c10 -35 23 -45 18 -15 -3 15 -10 29 -15 32 -6 4 -7 -2 -3
-17z"/>
<path d="M3840 200 c0 -8 5 -22 10 -30 9 -13 10 -13 10 0 0 8 -5 22 -10 30 -9
13 -10 13 -10 0z"/>
<path d="M3860 108 c0 -9 5 -20 10 -23 13 -8 13 5 0 25 -8 13 -10 13 -10 -2z"/>
<path d="M3780 98 c0 -10 -6 -17 -12 -15 -7 1 -13 -8 -13 -20 0 -11 -3 -24 -7
-28 -4 -4 -4 -13 -1 -21 7 -20 78 -18 103 3 26 23 25 28 -5 28 -14 0 -25 -3
-25 -7 0 -5 -4 -8 -10 -8 -5 0 -10 12 -10 28 0 15 -5 34 -10 42 -8 13 -10 12
-10 -2z"/>
<path d="M3590 49 c-13 -15 -28 -25 -32 -23 -4 3 -5 -2 -2 -11 9 -22 26 -14
48 24 24 41 18 45 -14 10z"/>
<path d="M3689 45 c-1 -3 -2 -8 -3 -12 -1 -5 -5 -14 -9 -20 -6 -9 -2 -13 11
-13 15 0 18 5 14 25 -4 23 -10 32 -13 20z"/>
<path d="M3900 20 c-14 -11 -20 -20 -14 -20 6 0 19 9 29 20 23 25 17 25 -15 0z"/>
</g>
</svg>
